<?xml version="1.0" encoding="UTF-8" standalone="no"?>
<!-- Created with Inkscape (http://www.inkscape.org/) -->

<svg
   xmlns:dc="http://purl.org/dc/elements/1.1/"
   xmlns:cc="http://creativecommons.org/ns#"
   xmlns:rdf="http://www.w3.org/1999/02/22-rdf-syntax-ns#"
   xmlns:svg="http://www.w3.org/2000/svg"
   xmlns="http://www.w3.org/2000/svg"
   xmlns:sodipodi="http://sodipodi.sourceforge.net/DTD/sodipodi-0.dtd"
   xmlns:inkscape="http://www.inkscape.org/namespaces/inkscape"
   id="Layer_1"
   xml:space="preserve"
   version="1.0"
   viewBox="0 0 565.72927 522.35907"
   inkscape:version="0.92.2 (5c3e80d, 2017-08-06)"
   sodipodi:docname="blind_driver.svg"
   width="565.72925"
   height="522.35907"
   inkscape:export-filename="/media/juhele/data_2TB/_GRAFIKA/2018_03_30_slepy_ridic/blind_driver.png"
   inkscape:export-xdpi="135.81462"
   inkscape:export-ydpi="135.81462"><title
     id="title937">Blind Girl Driving Car Cartoon</title><defs
     id="defs116"><linearGradient
       inkscape:collect="always"
       x1="364.79001"
       y1="655.28003"
       gradientTransform="matrix(2.3092126,0,0,2.3092126,-1354.2895,-952.37075)"
       x2="367.45999"
       gradientUnits="userSpaceOnUse"
       y2="656.53003"
       id="linearGradient19712"><stop
         offset="0"
         style="stop-color:#ffffff"
         id="stop19703" /><stop
         offset="1"
         style="stop-color:#a5a5a5"
         id="stop19705" /></linearGradient><radialGradient
       inkscape:collect="always"
       r="5.4008999"
       gradientTransform="matrix(1.2028432,-1.3951232,0.56254257,1.1678535,-608.43707,174.45438)"
       cx="-167.87"
       cy="338.45001"
       gradientUnits="userSpaceOnUse"
       id="radialGradient19720"><stop
         offset="0"
         style="stop-color:#ffffff"
         id="stop19716" /><stop
         offset="1"
         style="stop-color:#ece9e9"
         id="stop19718" /></radialGradient></defs><sodipodi:namedview
     pagecolor="#ffffff"
     bordercolor="#666666"
     borderopacity="1"
     objecttolerance="10"
     gridtolerance="10"
     guidetolerance="10"
     inkscape:pageopacity="0"
     inkscape:pageshadow="2"
     inkscape:window-width="1920"
     inkscape:window-height="1140"
     id="namedview114"
     showgrid="false"
     inkscape:zoom="1.5018254"
     inkscape:cx="312.0959"
     inkscape:cy="243.64709"
     inkscape:window-x="0"
     inkscape:window-y="0"
     inkscape:window-maximized="1"
     inkscape:current-layer="g1016"
     fit-margin-top="5"
     fit-margin-right="5"
     fit-margin-bottom="5"
     fit-margin-left="5" /><metadata
     id="metadata111"><rdf:RDF><cc:Work><dc:format>image/svg+xml</dc:format><dc:type
           rdf:resource="http://purl.org/dc/dcmitype/StillImage" /><cc:license
           rdf:resource="http://creativecommons.org/publicdomain/zero/1.0/" /><dc:publisher><cc:Agent
             rdf:about="http://openclipart.org/"><dc:title>Openclipart</dc:title></cc:Agent></dc:publisher><dc:title>Blind Girl Driving Car Cartoon</dc:title><dc:date></dc:date><dc:description /><dc:source></dc:source><dc:creator><cc:Agent><dc:title>Gerald_G, remixed by Juhele</dc:title></cc:Agent></dc:creator><dc:subject><rdf:Bag><rdf:li>car</rdf:li><rdf:li>cartoon</rdf:li><rdf:li>girl</rdf:li><rdf:li>people</rdf:li><rdf:li>transportation</rdf:li><rdf:li>woman</rdf:li><rdf:li>blind</rdf:li><rdf:li>visually impaired</rdf:li><rdf:li>vision</rdf:li><rdf:li>sunglasses</rdf:li><rdf:li>remix+751</rdf:li><rdf:li>remix+154723</rdf:li></rdf:Bag></dc:subject></cc:Work><cc:License
         rdf:about="http://creativecommons.org/publicdomain/zero/1.0/"><cc:permits
           rdf:resource="http://creativecommons.org/ns#Reproduction" /><cc:permits
           rdf:resource="http://creativecommons.org/ns#Distribution" /><cc:permits
           rdf:resource="http://creativecommons.org/ns#DerivativeWorks" /></cc:License></rdf:RDF></metadata><g
     id="g1136"
     transform="translate(4.9993718,5.0000584)"><g
       id="g5"><path
         d="m 201.66,180.93 c 18.93,-2.31 40.68,-5.91 66.06,-10.95 25.48,-5.07 53.31,-11.45 85.28,-19.26 l 8.96,-16.77 c 3.64,-2.67 7.71,-4.32 12.89,-4.83 5.08,-0.65 9.4,0.51 17.43,1.51 7.88,1.12 16.56,2.67 30.31,4.5 13.82,1.66 37.98,4.43 51.91,5.4 13.72,0.8 20.45,-0.43 30.31,-0.61 9.83,-0.43 23.73,-2.12 28.23,-1.19 4.32,0.98 -0.4,3.78 -2.09,6.92 -1.87,2.98 -6.95,8.02 -8.43,11.08 -1.51,2.99 -1.51,5.3 -0.28,6.92 1.98,1.15 3.52,3.16 5.07,6.58 1.41,3.24 2.67,8.25 3.64,13.22 1.01,4.82 1.65,8.78 2.09,16.2 0.32,7.48 0.18,16.7 -0.29,28.22 8.46,0.4 14.36,1.15 18,2.41 3.56,1.08 2.48,2.31 3.27,4.79 0.76,2.52 2.81,7.81 0.9,10.19 -2.16,2.3 -6.37,3.45 -13.17,3.6 -0.69,-1.4 -1.33,-2.3 -1.8,-2.7 -0.54,-0.4 -0.9,-0.29 -1.23,0.32 0,4.43 -0.25,8.03 -0.9,11.09 -0.64,2.99 -1.69,5.29 -2.98,6.91 l -8.43,-0.28 c -0.39,9.82 -1.44,18.57 -3.27,26.92 -1.84,8.25 -3.42,16.82 -7.53,22.5 -4.25,5.62 -9.9,9.22 -17.39,11.09 l -24.91,-4.5 c -1.69,-2.12 -2.95,-5.36 -3.92,-9.57 -0.94,-4.29 -1.59,-9.54 -1.8,-15.92 -17.71,9.04 -36.54,17.75 -57.6,26.72 -21.17,8.92 -43.31,17.53 -67.83,26.38 -1,4.68 -2.01,7.24 -3.31,7.82 -1.26,0.46 -2.66,-0.9 -4.21,-4.5 l -16.49,-0.29 c 1.19,6.59 1.59,13.5 1.19,21.27 -0.47,7.71 -1.44,16.89 -3.6,24.63 -2.27,7.63 -5.29,14.4 -9.61,20.99 -4.54,6.4 -10.51,13.57 -16.81,18.03 -6.34,4.43 -13.11,7.27 -20.7,8.68 l -37.19,-8.68 c -1.77,-2.48 -3.82,-6.69 -6.01,-12.92 -2.27,-6.3 -4.83,-14.22 -7.53,-24.3 l -10.47,4.79 c -22.04,-6.3 -40.32,-11.42 -55.84,-15.88 -15.48,-4.43 -27.36,-7.88 -36.32,-10.51 -8.46,2.84 -15.737,4.53 -22.217,5.07 -6.588,0.44 -11.16,-0.39 -16.488,-2.08 -5.508,-1.77 -10.8,-4.15 -15.3,-8.11 -4.428,-4.06 -8.136,-9.46 -11.124,-16.2 -11.088,-3.96 -20.556,-7.27 -28.8,-10.22 -8.244,-2.92 -15.048,-5.36 -20.412,-7.2 l -0.9,-16.49 c 1.692,-1.94 4.536,-3.45 8.388,-4.82 3.852,-1.37 8.712,-2.41 14.724,-3.28 L 23.419,302 c -0.432,-3.14 -0.576,-6.16 -0.576,-9.47 0,-3.28 0.144,-6.63 0.576,-10.05 -1.368,-4.32 -1.26,-7.88 0.324,-11.12 1.584,-3.2 4.536,-5.9 9,-8.1 -0.756,-3.93 -0.612,-6.88 0.576,-9 1.116,-2.12 2.664,-2.95 6.3,-3.6 3.564,-0.76 8.676,-0.9 15.336,-0.58 l 80.715,-49.53 17.71,-7.49 c 16.09,-4.03 32.18,-8.07 48.28,-12.13 z"
         style="fill-rule:evenodd;stroke:#000000;stroke-width:0.036;stroke-miterlimit:10"
         id="path7"
         inkscape:connector-curvature="0" /><path
         d="m 154.57,194.39 c -5.83,1.87 -11.88,4.57 -18.29,8.1 -6.44,3.42 -10.51,6.98 -20.12,12.92 -9.76,6.02 -26.249,15.7 -37.805,22.79 -11.772,6.95 -25.2,14.73 -31.536,18.62 -6.228,3.7 -6.084,2.7 -5.688,3.92 0.324,1.19 1.476,1.76 7.488,2.99 6.012,1.01 15.192,1.37 27.936,3.6 12.708,2.16 35.645,7.59 47.415,9.9 11.48,2.27 13.93,4.17 21.92,3.92 7.81,-0.32 10.98,-1.26 25.49,-5.72 14.65,-4.68 41.08,-14.65 61.24,-21.6 19.98,-7.1 40.71,-13.94 57.92,-20.13 17.1,-6.23 31.61,-11.7 44.1,-16.81 -5.26,-2.67 -15.91,-5.26 -32.4,-7.78 -16.74,-2.7 -44.82,-5.4 -66.31,-7.52 -21.57,-2.2 -47.49,-3.89 -61.24,-5.08 -13.68,-1.26 -20.19,-1.87 -20.12,-2.12 z"
         style="fill:#ff8080;fill-rule:evenodd;stroke:#000000;stroke-width:0.036;stroke-miterlimit:10"
         id="path9"
         inkscape:connector-curvature="0" /><path
         d="m 63.055,254.44 c 9.756,-5.65 50.505,-28.48 66.315,-36.94 15.55,-8.57 29.09,-15.3 27,-13.79 -2.41,1.51 -25.96,14.8 -40.21,22.79 -14.33,7.99 -35.429,19.44 -44.429,24.34 -8.964,4.57 -18.288,9.14 -8.676,3.6 z"
         style="fill-rule:evenodd;stroke:#000000;stroke-width:0.036;stroke-miterlimit:10"
         id="path11"
         inkscape:connector-curvature="0" /><path
         d="m 89.695,257.97 c 9.9,-5.44 51.375,-26.93 67.355,-35.03 15.84,-8.21 29.45,-14.37 27.36,-13.03 -2.45,1.47 -26.42,14.11 -40.82,21.67 -14.44,7.49 -36.07,18.54 -45.075,23.04 -9.108,4.43 -18.577,8.46 -8.82,3.35 z"
         style="fill-rule:evenodd;stroke:#000000;stroke-width:0.036;stroke-miterlimit:10"
         id="path13"
         inkscape:connector-curvature="0" /><path
         d="m 126.88,256.96 c 10.08,-5.11 52.02,-25.52 68.33,-33.05 16.09,-7.67 29.88,-13.65 27.76,-12.24 -2.56,1.4 -26.75,13.32 -41.47,20.48 -14.73,7.1 -36.54,17.43 -45.72,21.71 -9.15,4.14 -18.87,7.99 -8.9,3.1 z"
         style="fill-rule:evenodd;stroke:#000000;stroke-width:0.036;stroke-miterlimit:10"
         id="path15"
         inkscape:connector-curvature="0" /><path
         d="m 152.55,260.02 c 10.33,-4.68 53.32,-22.72 69.95,-29.52 16.45,-6.77 30.53,-12.13 28.33,-10.8 -2.52,1.33 -27.5,11.88 -42.44,18.32 -15.01,6.27 -37.41,15.59 -46.77,19.37 -9.43,3.71 -19.26,6.98 -9.07,2.63 z"
         style="fill-rule:evenodd;stroke:#000000;stroke-width:0.036;stroke-miterlimit:10"
         id="path17"
         inkscape:connector-curvature="0" /><path
         d="m 172.24,267.76 c 10.48,-4.18 54.11,-20.63 71.07,-26.71 16.74,-6.09 30.99,-10.88 28.76,-9.65 -2.52,1.26 -27.97,10.73 -43.16,16.6 -15.34,5.68 -37.98,14.11 -47.52,17.49 -9.54,3.31 -19.44,6.19 -9.15,2.27 z"
         style="fill-rule:evenodd;stroke:#000000;stroke-width:0.036;stroke-miterlimit:10"
         id="path19"
         inkscape:connector-curvature="0" /><path
         d="m 39.331,263.73 c 2.556,0.21 6.804,0.86 12.888,1.8 6.12,1.01 15.048,2.12 23.436,3.89 8.244,1.51 16.056,3.56 25.815,5.72 9.65,2.05 23.61,5.51 31.79,6.91 7.92,1.3 9.03,2.34 16.52,1.19 7.52,-1.22 14.94,-3.74 28.51,-8.1 13.5,-4.57 35.57,-12.49 51.91,-18.32 16.24,-5.8 32.55,-11.56 45.04,-15.92 12.28,-4.42 18.54,-6.33 28.8,-10.18 10.22,-3.86 20.88,-8.21 32.4,-12.93 0.94,0.83 1.04,1.73 0.61,2.7 -0.47,0.94 -1.76,1.95 -3.6,3.03 -14.98,5.4 -31.21,11.26 -49.54,18 -18.54,6.73 -43.12,15.66 -59.72,21.92 -16.49,6.01 -27.72,10.3 -38.7,14.4 -11.2,4.1 -19.8,7.92 -27.32,9.9 -7.56,1.73 -10.77,1.62 -17.39,1.19 -6.77,-0.51 -14.04,-1.98 -22.5,-3.6 -8.46,-1.62 -19.442,-4.21 -27.938,-5.98 -8.532,-1.8 -15.264,-3.27 -23.112,-4.82 -8.028,-1.73 -19.512,-3.93 -24.3,-4.79 -4.824,-0.9 -3.636,0.61 -4.212,-0.32 -0.575,-1.01 -0.468,-2.96 0.613,-5.69 z"
         style="fill:#ff8080;fill-rule:evenodd;stroke:#000000;stroke-width:0.036;stroke-miterlimit:10"
         id="path21"
         inkscape:connector-curvature="0" /><path
         d="m 34.831,265.53 c -3.348,0.36 -5.616,1.51 -7.2,3.6 -1.512,2.01 -1.836,2.7 -2.088,8.71 -0.396,6.05 0.072,19.44 0,27 -0.18,7.34 -0.252,12.99 -0.612,17.1 l 19.8,6.3 c -1.404,-15.95 -2.808,-28.73 -4.5,-39.31 -1.656,-10.52 -3.456,-18.22 -5.4,-23.4 z"
         style="fill:#d35f4a;fill-rule:evenodd;stroke:#000000;stroke-width:0.036;stroke-miterlimit:10"
         id="path23"
         inkscape:connector-curvature="0" /><path
         d="m 39.619,272.11 c 11.916,1.88 23.292,3.93 34.812,6.3 11.52,2.31 24.3,5.69 33.629,7.82 9.14,2.01 14.9,3.52 21.31,4.82 6.41,1.3 10.91,2.99 16.81,2.99 5.83,-0.15 7.02,-0.15 17.71,-3.6 10.62,-3.6 30.96,-11.95 45.33,-17.43 14.25,-5.51 26.38,-10.47 39.6,-15.3 13.17,-5.11 27.46,-10.19 38.41,-14.11 10.65,-3.81 17.31,-6.12 25.52,-9 8.28,-3.02 18.72,-6.3 23.4,-9 4.54,-2.77 3.24,-5.22 3.6,-7.49 0.22,-2.23 -0.43,-4.28 -2.09,-6.01 l 15.01,-4.5 c -0.07,8.32 0.08,18.72 0.29,31.5 0.26,12.78 0.83,33.98 1.19,44.75 0.25,10.58 0.36,16.88 0.33,18.9 6.69,-2.27 13.6,-4.83 21.27,-7.53 7.6,-2.84 17.68,-5.97 24.01,-9 6.2,-3.02 9.4,-3.52 12.93,-9.28 3.38,-6.09 5.18,-16.6 7.48,-26.1 2.2,-9.51 4.76,-20.42 5.73,-30.35 0.86,-10.05 0.61,-19.51 -0.61,-29.09 l 3.31,-0.9 -0.61,75.92 c -0.72,2.99 -0.69,5.19 -0.29,6.59 0.4,1.3 0.14,2.41 2.99,1.8 2.81,-0.68 7.27,-3.13 13.79,-5.4 6.51,-2.37 14.68,-5.07 24.91,-8.39 2.37,-4.46 4.93,-10.11 7.81,-17.1 2.81,-7.05 7.67,-18.5 9.32,-24.62 1.59,-6.19 0.76,-5.33 0.58,-11.99 -0.14,-6.84 -0.68,-16.02 -1.48,-28.22 11.85,-3.64 20.67,-6.3 27,-8.39 6.2,-2.09 9.54,-3.35 10.19,-3.92 2.13,4.03 3.78,8.38 5.11,12.92 1.26,4.5 2.16,7.49 2.7,14.4 0.47,6.95 0.58,15.62 0.33,26.71 -1.87,-6.48 -3.78,-10.98 -5.73,-13.5 -2.01,-2.63 -1.8,-2.45 -6.01,-1.8 -4.32,0.58 -15.08,4 -19.51,5.4 -4.54,1.26 -6.81,2.05 -7.2,2.38 -4.18,11.66 -7.78,21.49 -10.8,30.02 -3.17,8.39 -5.44,14.55 -7.49,20.41 -2.05,5.73 -3.71,9.33 -4.82,14.12 -1.19,4.78 -1.84,9.54 -2.09,14.4 l -126.65,52.81 -0.61,-11.09 c -2.63,-7.59 -5.69,-15.48 -9.58,-24.33 -3.92,-9 -9.86,-22.43 -13.53,-28.19 -3.78,-5.65 -4.03,-4.5 -8.39,-5.69 -4.43,-1.4 -6.77,-2.99 -17.42,-1.84 -10.77,1.12 -25.89,4.07 -46.19,8.72 0.03,-0.36 -1.41,-0.8 -3.93,-0.9 -2.77,-0.29 -6.94,-0.58 -11.7,-0.29 -4.75,0.14 -13.39,0.32 -16.48,1.8 -3.21,1.48 -3.96,3.92 -2.42,7.2 -7.88,0.14 -14.04,0.79 -18.61,1.8 -4.61,0.94 -6.59,0.9 -8.71,4.21 -2.27,3.28 -3.02,6.99 -4.5,15.59 -1.58,8.53 -3.6,26.5 -4.5,35.42 -0.86,8.82 -1.26,14.44 -0.9,17.25 L 47.72,329.28 h -10e-4 c -0.504,-10.36 -1.404,-20.08 -2.7,-29.7 -1.404,-9.64 -3.204,-18.61 -5.4,-27.47 z"
         style="fill:#ff8080;fill-rule:evenodd;stroke:#000000;stroke-width:0.036;stroke-miterlimit:10"
         id="path25"
         inkscape:connector-curvature="0" /><path
         d="m 176.49,365.32 c -0.57,-7.27 -0.57,-15.05 0.29,-24.01 0.83,-9.04 3.02,-22.04 4.5,-29.13 1.22,-7.02 1.91,-10.11 3.6,-12.89 1.69,-2.95 2.41,-3.2 6.62,-4.21 4.14,-1.08 10.05,-1.73 18,-2.09 -1.44,3.03 -1.94,5.22 -1.51,6.59 0.36,1.23 0.65,1.08 3.93,1.51 3.27,0.36 11.19,2.06 15.58,1.19 4.11,-0.93 6.95,-4.57 9.9,-6.59 3.06,-2.19 6.56,-4.39 8.1,-6.01 1.37,-1.65 1.48,-2.81 0.33,-3.6 13.32,-3.17 23.94,-5.47 32.4,-7.2 8.31,-1.76 12.09,-3.13 17.71,-2.99 5.54,0.15 11.52,1.26 15.59,3.89 3.89,2.59 5.58,6.77 8.13,11.41 2.52,4.47 4.83,9.29 7.49,15.59 2.74,6.27 6.81,16.38 8.71,21.6 1.77,5.01 1.77,4.72 2.09,8.72 0.25,3.99 -0.03,13.03 -0.29,15.3 -0.32,2.16 -0.82,0.03 -1.22,-2.09 -0.43,-2.16 -0.18,-7.06 -1.19,-10.8 -1.11,-3.93 -1.8,-4.65 -5.4,-12.03 -3.78,-7.48 -9.29,-17.96 -16.81,-32.11 l -46.51,13.21 c -2.85,1.44 -4.72,3.1 -6.01,4.83 -1.34,1.62 -0.08,0.14 -1.48,5.69 -1.58,5.54 -5.11,19.51 -7.24,27.89 -2.16,8.43 -3.78,17.18 -5.4,22.22 -1.72,4.86 -1.15,5.54 -4.78,7.2 -3.82,1.58 -9.44,2.34 -17.43,2.41 2.7,-6.01 4.11,-9.97 3.93,-12.32 -0.18,-2.3 -1.34,-1.87 -4.83,-1.47 -3.74,0.32 -11.7,2.48 -16.49,3.27 -4.68,0.72 -6.73,1.3 -11.7,0.9 -5.07,-0.5 -11.23,-1.79 -18.61,-3.88 z"
         style="fill:#d35f4a;fill-rule:evenodd;stroke:#000000;stroke-width:0.036;stroke-miterlimit:10"
         id="path27"
         inkscape:connector-curvature="0" /><path
         d="m 355.95,206.99 c -0.25,-0.22 2.02,-1.12 7.2,-2.7 5.15,-1.73 13.43,-4.54 23.44,-6.88 9.9,-2.34 21.67,-4.64 35.71,-6.91 1.22,2.67 1.62,7.63 1.48,15.3 -0.29,7.67 -0.87,19.26 -2.7,30.32 -1.98,10.94 -4.68,26.53 -8.68,34.81 -4.1,7.99 -9.54,10.47 -15.34,13.82 -5.86,3.39 -12.74,3.82 -19.51,6.3 -6.8,2.45 -13.75,5.01 -20.99,8.1 -0.18,-30.71 -0.39,-61.42 -0.61,-92.16 z"
         style="fill:#ff8080;fill-rule:evenodd;stroke:#000000;stroke-width:0.036;stroke-miterlimit:10"
         id="path29"
         inkscape:connector-curvature="0" /><path
         d="m 431.59,188.7 52.23,-11.12 c 1.19,13.5 1.73,23.69 1.48,31.53 -0.36,7.64 0.03,5.91 -2.99,14.41 -3.02,8.46 -8.03,20.26 -15.01,36 l -36.9,12.92 c 0.4,-27.9 0.79,-55.8 1.19,-83.74 z"
         style="fill:#ff8080;fill-rule:evenodd;stroke:#000000;stroke-width:0.036;stroke-miterlimit:10"
         id="path31"
         inkscape:connector-curvature="0" /><path
         d="m 363.4,226.97 c 6.63,-2.05 33.38,-9.04 37.48,-9.86 3.78,-0.9 -7.81,2.73 -14.36,4.78 -6.74,1.91 -20.88,6.16 -24.81,7.06 -3.89,0.79 -4.9,0 1.69,-1.98 z"
         style="fill-rule:evenodd;stroke:#000000;stroke-width:0.036;stroke-miterlimit:10"
         id="path33"
         inkscape:connector-curvature="0" /><path
         d="m 363.4,270.49 c 6.63,-2.05 33.38,-9.03 37.48,-9.86 3.78,-0.79 -7.81,2.7 -14.36,4.79 -6.74,1.87 -20.88,6.15 -24.81,7.02 -3.89,0.72 -4.9,0.07 1.69,-1.95 z"
         style="fill-rule:evenodd;stroke:#000000;stroke-width:0.036;stroke-miterlimit:10"
         id="path35"
         inkscape:connector-curvature="0" /><path
         d="m 436.34,245.26 c 6.62,-2.05 33.37,-9.04 37.48,-9.86 3.77,-0.83 -7.82,2.77 -14.37,4.82 -6.73,1.87 -20.88,6.15 -24.8,7.02 -3.89,0.68 -4.9,0.07 1.69,-1.98 z"
         style="fill-rule:evenodd;stroke:#000000;stroke-width:0.036;stroke-miterlimit:10"
         id="path37"
         inkscape:connector-curvature="0" /><path
         d="m 437.35,208.18 c 4.57,-1.48 22.93,-6.19 25.77,-6.77 2.52,-0.72 -5.36,1.94 -9.9,3.28 -4.68,1.36 -14.29,4.14 -17.02,4.86 -2.6,0.5 -3.46,0 1.15,-1.37 z"
         style="fill-rule:evenodd;stroke:#000000;stroke-width:0.036;stroke-miterlimit:10"
         id="path39"
         inkscape:connector-curvature="0" /><path
         d="m 491.92,192.23 c 2.88,-0.97 15.02,-4.07 16.82,-4.43 1.62,-0.43 -3.5,1.26 -6.45,2.16 -3.09,0.87 -9.39,2.7 -11.12,3.17 -1.84,0.32 -2.23,-0.07 0.75,-0.9 z"
         style="fill-rule:evenodd;stroke:#000000;stroke-width:0.036;stroke-miterlimit:10"
         id="path41"
         inkscape:connector-curvature="0" /><path
         d="m 513.2,183.91 c 1.8,-0.64 9.32,-2.48 10.47,-2.73 0.9,-0.29 -2.15,0.75 -4.03,1.33 -1.83,0.47 -5.94,1.73 -6.91,1.98 -1.15,0.22 -1.37,-0.07 0.47,-0.58 z"
         style="fill-rule:evenodd;stroke:#000000;stroke-width:0.036;stroke-miterlimit:10"
         id="path43"
         inkscape:connector-curvature="0" /><path
         d="m 514.42,187.23 c 1.84,-0.65 9.25,-2.49 10.44,-2.74 0.97,-0.29 -2.16,0.76 -3.99,1.33 -1.84,0.51 -5.94,1.66 -6.91,1.95 -1.05,0.18 -1.44,0 0.46,-0.54 z"
         style="fill-rule:evenodd;stroke:#000000;stroke-width:0.036;stroke-miterlimit:10"
         id="path45"
         inkscape:connector-curvature="0" /><path
         d="m 515,190.83 c 1.8,-0.65 9.32,-2.49 10.48,-2.74 0.9,-0.29 -2.16,0.76 -4.04,1.33 -1.83,0.51 -5.94,1.66 -6.91,1.95 -1.15,0.18 -1.37,0 0.47,-0.54 z"
         style="fill-rule:evenodd;stroke:#000000;stroke-width:0.036;stroke-miterlimit:10"
         id="path47"
         inkscape:connector-curvature="0" /><path
         d="m 516.22,195.04 c 1.84,-0.61 9.26,-2.56 10.44,-2.77 0.98,-0.29 -2.16,0.75 -3.99,1.33 -1.84,0.54 -5.94,1.62 -6.92,1.98 -1.04,0.18 -1.44,0 0.47,-0.54 z"
         style="fill-rule:evenodd;stroke:#000000;stroke-width:0.036;stroke-miterlimit:10"
         id="path49"
         inkscape:connector-curvature="0" /><path
         d="m 516.8,198.93 c 1.8,-0.65 9.32,-2.49 10.48,-2.74 0.89,-0.29 -2.16,0.76 -4.04,1.33 -1.83,0.51 -5.94,1.66 -6.91,1.95 -1.15,0.18 -1.37,0 0.47,-0.54 z"
         style="fill-rule:evenodd;stroke:#000000;stroke-width:0.036;stroke-miterlimit:10"
         id="path51"
         inkscape:connector-curvature="0" /><path
         d="m 518.02,202.53 c 1.84,-0.65 9.26,-2.49 10.44,-2.74 0.98,-0.29 -2.16,0.76 -3.99,1.33 -1.84,0.51 -5.94,1.66 -6.92,1.95 -1.04,0.18 -1.43,0 0.47,-0.54 z"
         style="fill-rule:evenodd;stroke:#000000;stroke-width:0.036;stroke-miterlimit:10"
         id="path53"
         inkscape:connector-curvature="0" /><path
         d="m 349.65,308.44 c 18.94,-7.27 96.98,-35.21 111.96,-40.21 14.51,-5.01 -10.08,4.78 -24.62,10.51 -14.73,5.76 -48.13,18.14 -62.71,23.69 -14.62,5.32 -20.24,7.3 -24.34,8.42 -4.11,0.9 -19.01,4.68 -0.29,-2.41 z"
         style="fill-rule:evenodd;stroke:#000000;stroke-width:0.036;stroke-miterlimit:10"
         id="path55"
         inkscape:connector-curvature="0" /><path
         d="m 354.69,329.82 c 16.96,-7.63 87.16,-37.04 100.62,-42.41 13,-5.25 -8.93,4.79 -22.03,10.84 -13.29,6.05 -43.16,19.01 -56.31,24.84 -13.1,5.54 -18.18,7.78 -21.89,8.93 -3.81,1.15 -17.13,5.15 -0.39,-2.2 z"
         style="fill-rule:evenodd;stroke:#000000;stroke-width:0.036;stroke-miterlimit:10"
         id="path57"
         inkscape:connector-curvature="0" /><path
         d="m 239.2,273.91 c 2.31,-0.72 9.47,-3.31 25.82,-9.57 16.41,-6.37 60.19,-23.19 72.03,-27.94 11.56,-4.75 7.06,-3.6 -2.41,-0.29 -9.65,3.39 -40.25,14.58 -54.32,20.13 -14.19,5.33 -22.79,9 -29.7,11.99 -6.92,2.95 -13.83,6.19 -11.42,5.68 z"
         style="fill-rule:evenodd;stroke:#000000;stroke-width:0.036;stroke-miterlimit:10"
         id="path59"
         inkscape:connector-curvature="0" /><path
         d="m 321.75,284.75 c 2.09,-0.94 22.32,-7.23 24.59,-7.81 1.98,-0.54 -7.85,3.45 -11.99,4.79 -4.28,1.37 -14.51,3.67 -12.6,3.02 z"
         style="fill-rule:evenodd;stroke:#000000;stroke-width:0.036;stroke-miterlimit:10"
         id="path61"
         inkscape:connector-curvature="0" /><path
         d="m 405.78,225.03 c -0.65,-1.19 -0.55,-5.55 0.89,-7.24 1.44,-1.69 5.3,-2.27 7.82,-2.7 2.37,-0.61 6.51,-0.76 6.58,-0.29 -0.07,0.43 -4.68,2.12 -6.58,2.99 -1.95,0.65 -4.11,0.5 -4.83,1.51 -0.72,1.12 0.83,3.74 0.33,4.82 -0.79,0.87 -3.64,1.95 -4.21,0.91 z"
         style="fill-rule:evenodd;stroke:#000000;stroke-width:0.036;stroke-miterlimit:10"
         id="path63"
         inkscape:connector-curvature="0" /><path
         d="m 469.64,207.06 c -0.54,-1.01 -0.54,-5.07 0.83,-6.51 1.26,-1.44 4.86,-2.13 7.05,-2.45 2.23,-0.54 5.8,-0.69 5.98,-0.29 -0.18,0.36 -4.21,2.02 -5.98,2.74 -1.83,0.64 -3.6,0.36 -4.32,1.36 -0.68,0.87 0.8,3.46 0.26,4.32 -0.76,0.87 -3.28,1.66 -3.82,0.83 z"
         style="fill-rule:evenodd;stroke:#000000;stroke-width:0.036;stroke-miterlimit:10"
         id="path65"
         inkscape:connector-curvature="0" /><path
         d="m 469.1,291.27 c -0.14,-5.26 0.61,-10.62 2.41,-16.53 1.87,-5.94 4.9,-11.01 8.1,-18.57 2.92,-7.74 7.56,-20.09 9.9,-27.04 2.41,-7.02 3.64,-11.63 4.21,-14.4 4.03,-1.73 8.28,-3.27 13.18,-4.5 4.82,-1.33 12.49,-3.2 15.62,-2.99 2.99,0.15 1.01,1.26 2.42,4.18 1.22,2.99 3.52,7.99 5.39,13.21 1.84,5.26 4.58,12.13 5.69,17.43 1.01,5.07 1.08,13.21 0.61,12.88 -0.57,-0.61 -1.87,-9.5 -3.89,-15.58 -2.16,-6.02 -4.96,-12.82 -8.71,-20.42 l -20.41,5.12 c -4.79,13.21 -8.64,23.83 -11.7,32.4 -3.13,8.38 -5.47,13.14 -6.62,18.28 -1.19,5.12 0.28,9.54 -0.29,12.32 -0.57,2.62 -0.76,3.24 -3.31,3.92 -2.7,0.68 -6.8,0.83 -12.6,0.29 z"
         style="fill:#d35f4a;fill-rule:evenodd;stroke:#000000;stroke-width:0.036;stroke-miterlimit:10"
         id="path67"
         inkscape:connector-curvature="0" /><path
         d="m 536.92,229.74 c 6.23,-0.72 10.59,0.04 13.22,2.41 2.62,2.42 3.38,9.04 2.41,11.7 -1.12,2.49 -3.75,3.78 -8.43,3.6 -1,-1.76 -1.9,-3.02 -2.98,-3.92 -1.12,-0.9 -2.13,-1.44 -3.32,-1.48 -0.21,-2.27 -0.61,-4.6 -1.19,-6.62 -0.64,-2.05 -1.4,-4.18 -2.41,-5.98 0.9,0.08 1.8,0.19 2.7,0.29 z"
         style="fill:#404040;fill-rule:evenodd;stroke:#000000;stroke-width:0.036;stroke-miterlimit:10"
         id="path69"
         inkscape:connector-curvature="0" /><path
         d="m 19.207,315.85 c -4.68,0.76 -8.424,1.62 -11.088,3.03 -2.736,1.18 -4.392,1.76 -5.112,4.78 -0.684,3.1 -0.432,7.28 0.9,13.22 l 202.61,63.32 c 2.34,0.72 4.5,-0.43 6.87,-3.31 2.27,-3.1 4.9,-9.33 6.91,-14.11 1.8,-4.86 5.48,-11.96 4.5,-14.08 -1.08,-2.12 -5.72,0.86 -10.18,1.48 -4.47,0.57 -7.89,2.37 -16.24,1.8 -8.5,-0.72 -18.83,-2.16 -34.2,-5.98 -15.66,-3.89 -36.86,-11.12 -57.92,-17.14 C 85.192,342.6 53.44,334.21 39.04,329.68 24.676,325.1 23.704,324.49 20.428,322.15 c -3.348,-2.34 -3.708,-4.39 -1.224,-6.3 z"
         style="fill:#404040;fill-rule:evenodd;stroke:#000000;stroke-width:0.036;stroke-miterlimit:10"
         id="path71"
         inkscape:connector-curvature="0" /><path
         d="m 53.155,356.97 61.525,18.32 c -8.82,2.34 -16.741,3.49 -24.337,3.31 -7.56,-0.14 -14.508,-0.72 -20.7,-4.21 -6.264,-3.67 -11.664,-9.43 -16.488,-17.42 z"
         style="fill:#212121;fill-rule:evenodd;stroke:#000000;stroke-width:0.036;stroke-miterlimit:10"
         id="path73"
         inkscape:connector-curvature="0" /><path
         d="m 224.52,382.02 c 4.64,0.18 8.31,0.04 11.7,-0.57 3.16,-0.54 5.58,-0.9 7.81,-3.03 2.16,-2.23 3.45,-2.81 5.69,-10.47 2.26,-7.92 4.82,-19.8 7.81,-36.33 6.48,-4.28 12.35,-7.63 18,-9.9 5.51,-2.41 10.01,-5.29 15.3,-3.92 5.29,1.4 11.52,5.83 15.91,12.02 4.25,6.09 8.42,13.03 9.61,24.3 1.01,11.27 0.65,30.06 -3.02,42.63 -3.82,12.42 -11.88,23.79 -19.19,31.5 -7.38,7.59 -15.3,12.06 -24.3,13.82 l -36.04,-7.52 c -4.14,-9.15 -7.09,-16.85 -9.29,-23.69 -2.19,-6.77 -3.67,-12.1 -3.6,-16.82 0.01,-4.82 1.16,-8.78 3.61,-12.02 z"
         style="fill:#212121;fill-rule:evenodd;stroke:#000000;stroke-width:0.036;stroke-miterlimit:10"
         id="path75"
         inkscape:connector-curvature="0" /><path
         d="m 268.04,355.02 c -3.96,5.04 -7.27,11.7 -8.42,20.41 -1.34,8.64 -1.59,23.58 0.9,31.22 2.48,7.45 8.67,12.92 14.11,13.5 5.33,0.35 13.5,-3.75 18,-10.52 4.46,-6.84 8.39,-20.16 8.71,-29.7 0.18,-9.72 -4.21,-21.42 -7.2,-27.32 -2.99,-5.9 -6.59,-7.88 -10.8,-7.49 -4.43,0.44 -11.34,4.75 -15.3,9.9 z"
         style="fill-rule:evenodd;stroke:#000000;stroke-width:0.036;stroke-miterlimit:10"
         id="path77"
         inkscape:connector-curvature="0" /><path
         d="m 271.93,360.42 c -4.18,5.65 -6.63,11.56 -7.49,18 -0.86,6.52 0.25,15.73 2.38,20.41 2.08,4.47 6.4,6.52 9.9,6.3 3.34,-0.35 7.27,-3.42 10.22,-7.77 2.81,-4.39 5.11,-10.4 6.91,-18.32 -1.19,-3.6 -2.99,-4.76 -5.4,-3.32 -2.48,1.41 -7.95,11.7 -9.32,11.74 -1.41,-0.18 1.94,-11.09 0.9,-12.31 -1.15,-1.3 -6.7,6.22 -7.49,5.07 -0.79,-1.22 2.27,-9.57 2.38,-11.99 0,-2.37 -1.95,-1.18 -2.38,-2.41 -0.5,-1.33 -0.76,-3.13 -0.61,-5.4 z"
         style="fill:#808080;fill-rule:evenodd;stroke:#000000;stroke-width:0.036;stroke-miterlimit:10"
         id="path79"
         inkscape:connector-curvature="0" /><path
         d="m 274.02,358.33 c 0.97,-2.34 2.23,-3.81 3.92,-4.82 1.58,-1.01 3.85,-1.44 5.97,-0.9 2.09,0.51 5.05,2.23 6.63,4.21 1.4,1.95 2.16,4.07 2.7,7.2 0.61,2.99 0.86,6.59 0.9,10.8 -1.33,-1.51 -2.74,-2.16 -4.22,-2.08 -1.65,0 -3.2,1.22 -4.78,2.7 -1.59,1.43 -3.82,6.58 -4.22,6.01 -0.53,-0.79 2.56,-9 1.52,-9.9 -1.12,-0.9 -7.06,5.04 -7.81,4.5 -0.8,-0.72 2.98,-6.01 2.98,-8.1 -0.14,-2.09 -3.06,-2.67 -3.6,-4.21 -0.61,-1.63 -0.61,-3.43 0.01,-5.41 z"
         style="fill:#a1a1a1;fill-rule:evenodd;stroke:#000000;stroke-width:0.036;stroke-miterlimit:10"
         id="path81"
         inkscape:connector-curvature="0" /><path
         d="m 229.02,397.94 c 0.9,7.19 2.26,13.6 4.5,19.22 2.19,5.58 4.86,10.33 8.38,14.4 -2.26,-4.21 -4.46,-9.11 -6.58,-14.69 -2.16,-5.72 -4.22,-11.84 -6.3,-18.93 z"
         style="fill-rule:evenodd;stroke:#000000;stroke-width:0.036;stroke-miterlimit:10"
         id="path83"
         inkscape:connector-curvature="0" /><path
         d="m 239.53,405.13 c 0.25,5.3 1.4,10.41 3.6,15.34 2.19,4.9 5.15,9.54 9.29,14.08 -2.88,-4.36 -5.33,-8.82 -7.49,-13.79 -2.27,-4.97 -3.89,-10.05 -5.4,-15.63 z"
         style="fill-rule:evenodd;stroke:#000000;stroke-width:0.036;stroke-miterlimit:10"
         id="path85"
         inkscape:connector-curvature="0" /><path
         d="m 245.22,395.85 c 0.07,7.27 0.72,13.17 2.08,18 1.3,4.78 3.21,8.24 5.73,10.51 v -1.51 c -1.48,-1.98 -2.74,-4.94 -3.93,-9 -1.22,-4.03 -2.12,-9.18 -2.98,-15.3 z"
         style="fill-rule:evenodd;stroke:#000000;stroke-width:0.036;stroke-miterlimit:10"
         id="path87"
         inkscape:connector-curvature="0" /><path
         d="m 117.92,335.62 c -0.61,-3.89 -2.31,-7.02 -5.37,-9.79 -3.09,-2.88 -9.28,-5.55 -12.74,-6.59 -3.564,-1.01 -6.156,-0.79 -8.172,0.65 -5.724,-4.76 -11.34,-6.74 -17.388,-5.8 -6.156,0.9 -13.968,5.87 -18.576,11.16 -4.644,5.25 -9.072,15.05 -8.712,20.19 0.468,5.01 4.824,9.08 10.98,9.69 6.012,0.5 17.172,-3.71 24.876,-6.41 7.632,-2.91 14.508,-8.06 20.482,-10.3 5.87,-2.19 10.7,-3.13 14.62,-2.8 z"
         style="fill-rule:evenodd;stroke:#000000;stroke-width:0.036;stroke-miterlimit:10"
         id="path89"
         inkscape:connector-curvature="0" /><path
         d="m 82.963,323.02 c -0.648,-1.58 -2.052,-2.31 -4.356,-2.7 -2.34,-0.43 -6.156,-1.08 -9.504,0.68 -3.528,1.73 -8.46,6.16 -11.052,9.98 -2.628,3.85 -4.464,9.54 -4.248,12.74 0.144,3.06 1.944,4.9 5.4,5.65 3.42,0.65 8.64,0.72 14.832,-1.58 6.156,-2.45 15.336,-9.9 21.312,-12.64 5.763,-2.77 10.193,-3.99 13.283,-3.67 -2.01,-2.27 -4.64,-3.78 -7.88,-4.68 -3.315,-0.97 -6.555,-1.87 -11.811,-0.61 -5.4,1.33 -11.988,3.99 -20.16,8.39 0.864,-1.34 2.268,-2.96 4.752,-4.86 2.376,-1.95 5.472,-4.18 9.432,-6.7 z"
         style="fill:#ff0000;fill-rule:evenodd;stroke:#000000;stroke-width:0.036;stroke-miterlimit:10"
         id="path91"
         inkscape:connector-curvature="0" /><path
         d="m 186.82,326.11 c -3.13,4.72 -4.82,14.01 -5.07,20.38 -0.33,6.23 0.14,14.11 3.35,17.14 3.09,2.88 11.01,4.39 15.15,0.64 4.03,-3.88 9.04,-15.77 9.04,-23.4 -0.22,-7.81 -5.55,-20.05 -9.33,-22.53 -3.85,-2.52 -10.08,2.99 -13.14,7.77 z"
         style="fill-rule:evenodd;stroke:#000000;stroke-width:0.036;stroke-miterlimit:10"
         id="path93"
         inkscape:connector-curvature="0" /><path
         d="m 187.72,328.02 c -2.8,4.14 -4.21,12.49 -4.5,18.11 -0.39,5.65 0.22,12.38 2.96,15.19 2.73,2.59 9.75,3.89 13.42,0.58 3.57,-3.5 8,-13.94 8.03,-20.78 -0.07,-6.94 -5,-17.78 -8.28,-20.01 -3.42,-2.16 -8.96,2.59 -11.63,6.91 z"
         style="fill:#e0e0e0;fill-rule:evenodd;stroke:#000000;stroke-width:0.036;stroke-miterlimit:10"
         id="path95"
         inkscape:connector-curvature="0" /><path
         d="m 187.51,343.4 c -1.3,1.9 -1.95,5.76 -2.09,8.35 -0.14,2.52 0.04,5.72 1.37,6.98 1.29,1.19 4.43,1.73 6.19,0.25 1.69,-1.62 3.56,-6.37 3.67,-9.54 -0.14,-3.24 -2.23,-8.2 -3.78,-9.21 -1.69,-1.08 -4.03,1.22 -5.36,3.17 z"
         style="fill-rule:evenodd;stroke:#000000;stroke-width:0.036;stroke-miterlimit:10"
         id="path97"
         inkscape:connector-curvature="0" /><path
         d="m 109.32,324.89 c 1.26,0.54 3.34,1.55 6.26,3.42 2.84,1.84 7.63,5.9 11.16,7.35 3.46,1.29 6.66,1.29 9.61,0.68 2.81,-0.68 5.37,-2.12 7.53,-4.46 0.07,-0.62 -0.33,-1.19 -1.19,-1.73 -0.87,-0.54 -2.2,-1.26 -4,-1.77 1.66,-0.18 3.39,0.04 5.19,0.79 1.83,0.83 4.24,1.91 5.43,3.64 1.01,1.48 1.33,4.14 0.83,5.62 -0.58,1.44 -1.94,2.48 -4.1,3.13 0.57,-2.66 0.68,-4.39 0.18,-5.19 -0.47,-0.82 -1.55,-0.75 -3.24,0.22 -1.88,0.94 -4.58,4.21 -7.71,4.82 -3.35,0.4 -8.17,-1.29 -11.27,-2.3 -3.09,-1.12 -4.75,-2.84 -6.76,-4.07 -2.16,-1.37 -3.89,-2.41 -5.62,-3.56 -0.76,-2.2 -1.51,-4.39 -2.3,-6.59 z"
         style="fill-rule:evenodd;stroke:#000000;stroke-width:0.036;stroke-miterlimit:10"
         id="path99"
         inkscape:connector-curvature="0" /><path
         d="m 143.73,322.8 c 4.5,0.47 7.85,1.98 10.19,4.4 2.27,2.41 3.53,6.4 3.63,10.04 0.04,3.56 -0.9,7.31 -3.09,11.38 4.17,-6.09 6.19,-11.09 6.48,-15.3 0.11,-4.32 -2.45,-8.07 -5.33,-9.87 -2.91,-1.76 -6.87,-1.98 -11.88,-0.65 z"
         style="fill-rule:evenodd;stroke:#000000;stroke-width:0.036;stroke-miterlimit:10"
         id="path101"
         inkscape:connector-curvature="0" /><path
         d="m 30.115,289.47 c -1.656,5 -0.864,13.75 0.432,19.58 1.296,5.8 3.6,12.46 7.2,14.58 3.492,1.91 11.016,1.19 13.824,-3.13 2.7,-4.61 4.14,-16.31 2.376,-23.29 -2.088,-6.99 -9.936,-16.64 -13.968,-17.97 -4.068,-1.26 -8.28,5.11 -9.864,10.23 z"
         style="fill-rule:evenodd;stroke:#000000;stroke-width:0.036;stroke-miterlimit:10"
         id="path103"
         inkscape:connector-curvature="0" /><path
         d="m 31.375,290.98 c -1.44,4.54 -0.792,12.1 0.396,17.39 1.152,5.04 3.24,11.19 6.408,12.92 3.132,1.73 9.756,0.97 12.24,-2.81 2.412,-4.03 3.708,-14.47 2.088,-20.62 -1.8,-6.2 -8.784,-14.8 -12.348,-15.95 -3.6,-1.12 -7.452,4.5 -8.784,9.07 z"
         style="fill:#e0e0e0;fill-rule:evenodd;stroke:#000000;stroke-width:0.036;stroke-miterlimit:10"
         id="path105"
         inkscape:connector-curvature="0" /><path
         d="m 34.975,304.84 c -0.648,2.12 -0.396,5.54 0.18,8.03 0.54,2.37 1.476,5 2.952,5.94 1.404,0.79 4.428,0.35 5.616,-1.3 1.044,-1.91 1.692,-6.7 0.972,-9.51 -0.828,-2.91 -4.068,-6.8 -5.688,-7.34 -1.692,-0.5 -3.456,2.05 -4.032,4.18 z"
         style="fill-rule:evenodd;stroke:#000000;stroke-width:0.036;stroke-miterlimit:10"
         id="path107"
         inkscape:connector-curvature="0" /><path
         d="m 487.1,288.14 c -0.9,-2.63 -1.08,-5.73 -0.69,-9.29 0.33,-3.6 0.58,-5.55 2.99,-12.24 2.38,-6.77 6.09,-16.13 11.27,-28.23 2.7,-2.91 5.11,-4.43 7.63,-4.97 2.49,-0.54 4.36,-1.26 6.99,2.02 2.52,3.35 6.51,10.87 7.95,17.57 1.33,6.59 0.83,12.67 0,21.56 -1.08,8.75 -3.24,23.65 -5.65,30.82 -2.41,6.98 -4.71,8.53 -8.28,11.3 -3.71,2.77 -7.95,4.25 -13.28,4.97 l -20.23,-2.66 c -2.38,-5.33 -4.04,-10.08 -4.97,-14.26 -0.94,-4.25 -1.15,-7.85 -0.65,-10.94 5.76,0.46 10.12,0.25 12.92,-0.65 2.81,-0.97 4.14,-2.59 4,-5 z"
         style="fill:#212121;fill-rule:evenodd;stroke:#000000;stroke-width:0.036;stroke-miterlimit:10"
         id="path109"
         inkscape:connector-curvature="0" /><path
         d="m 496.06,266.75 c -2.16,2.63 -3.78,6.16 -4.42,10.73 -0.8,4.54 -0.83,12.42 0.46,16.45 1.37,3.93 4.5,6.77 7.46,7.13 2.91,0.25 6.94,-2.05 9.46,-5.54 2.34,-3.64 4.4,-10.62 4.61,-15.66 0.07,-5.04 -2.3,-11.42 -3.81,-14.4 -1.66,-3.1 -3.42,-4.22 -5.69,-3.93 -2.38,0.14 -5.94,2.49 -8.07,5.22 z"
         style="fill-rule:evenodd;stroke:#000000;stroke-width:0.036;stroke-miterlimit:10"
         id="path111"
         inkscape:connector-curvature="0" /><path
         d="m 498.12,269.6 c -2.27,2.98 -3.46,6.01 -3.97,9.46 -0.46,3.46 0.15,8.25 1.3,10.77 1.12,2.37 3.31,3.38 5.22,3.31 1.77,-0.25 3.78,-1.8 5.37,-4.1 1.47,-2.31 2.73,-5.48 3.63,-9.65 -0.65,-1.91 -1.55,-2.49 -2.84,-1.73 -1.34,0.79 -4.21,6.08 -4.9,6.16 -0.69,-0.15 0.9,-5.87 0.47,-6.48 -0.69,-0.69 -3.53,3.27 -3.96,2.7 -0.47,-0.69 1.15,-5.12 1.26,-6.34 -0.07,-1.3 -1.01,-0.65 -1.26,-1.26 -0.29,-0.65 -0.4,-1.69 -0.32,-2.84 z"
         style="fill:#808080;fill-rule:evenodd;stroke:#000000;stroke-width:0.036;stroke-miterlimit:10"
         id="path113"
         inkscape:connector-curvature="0" /><path
         d="m 499.23,268.48 c 0.5,-1.23 1.19,-2.02 2.05,-2.52 0.83,-0.51 1.98,-0.9 3.17,-0.51 1.04,0.26 2.63,1.19 3.49,2.24 0.65,0.89 1.12,2.16 1.41,3.78 0.25,1.54 0.5,3.45 0.46,5.72 -0.64,-0.83 -1.47,-1.15 -2.19,-1.12 -0.76,0.08 -1.87,0.54 -2.52,1.41 -0.87,0.72 -1.98,3.49 -2.23,3.17 -0.25,-0.47 1.26,-4.76 0.79,-5.22 -0.69,-0.47 -3.67,2.59 -4.11,2.37 -0.47,-0.43 1.59,-3.2 1.59,-4.28 -0.11,-1.08 -1.62,-1.44 -1.91,-2.2 -0.36,-0.79 -0.36,-1.87 0,-2.84 z"
         style="fill:#a1a1a1;fill-rule:evenodd;stroke:#000000;stroke-width:0.036;stroke-miterlimit:10"
         id="path115"
         inkscape:connector-curvature="0" /><path
         d="m 475.87,299.19 c 0.43,3.92 1.26,7.45 2.48,10.58 1.15,3.1 2.73,5.69 4.61,7.92 -1.23,-2.34 -2.49,-5.04 -3.64,-8.1 -1.29,-3.1 -2.26,-6.52 -3.45,-10.4 z"
         style="fill-rule:evenodd;stroke:#000000;stroke-width:0.036;stroke-miterlimit:10"
         id="path117"
         inkscape:connector-curvature="0" /><path
         d="m 481.63,303.15 c 0.14,2.88 0.75,5.68 1.98,8.42 1.19,2.74 2.84,5.18 5.11,7.74 -1.66,-2.38 -2.88,-4.9 -4.11,-7.56 -1.18,-2.77 -2.23,-5.54 -2.98,-8.6 z"
         style="fill-rule:evenodd;stroke:#000000;stroke-width:0.036;stroke-miterlimit:10"
         id="path119"
         inkscape:connector-curvature="0" /><path
         d="m 484.8,298.03 c 0.1,4.04 0.35,7.24 1.15,9.9 0.68,2.56 1.72,4.54 3.13,5.8 v -0.83 c -0.86,-1.08 -1.59,-2.73 -2.16,-4.97 -0.69,-2.23 -1.19,-5.04 -1.66,-8.42 z"
         style="fill-rule:evenodd;stroke:#000000;stroke-width:0.036;stroke-miterlimit:10"
         id="path121"
         inkscape:connector-curvature="0" /><path
         d="m 34.938,261.89 c -2.052,-3.85 -1.872,-6.55 0.684,-8.24 2.592,-1.73 7.236,-2.34 14.472,-1.84 -4.824,2.34 -8.496,4.14 -11.016,5.94 -2.591,1.69 -3.923,3.02 -4.14,4.14 z"
         style="fill:#ffba35;fill-rule:evenodd;stroke:#000000;stroke-width:0.036;stroke-miterlimit:10"
         id="path123"
         inkscape:connector-curvature="0" /><path
         d="m 212.28,298.43 c 0.39,-3.1 0.75,-5.58 0.93,-7.6 0.11,-2.12 -2.27,-3.27 0.22,-4.57 2.37,-1.33 9.47,-2.7 14.47,-2.98 5,-0.33 10.04,0.18 15.41,1.36 2.01,0.58 1.83,2.13 -0.69,4.36 -2.62,2.23 -9.39,7.52 -14.47,9.21 -5.15,1.55 -10.3,1.62 -15.87,0.22 z"
         style="fill:#ffba35;fill-rule:evenodd;stroke:#000000;stroke-width:0.036;stroke-miterlimit:10"
         id="path125"
         inkscape:connector-curvature="0" /><path
         d="m 201.66,184.31 c 12.74,-2.12 27.1,-4.72 43.77,-7.92 16.74,-3.31 42.59,-8.75 55.48,-11.3 12.67,-2.67 19.33,-3.93 20.37,-4.18 l 28.7,-8.68 -11.78,43.46 c -45.5,-3.78 -91,-7.56 -136.54,-11.38 z"
         style="fill-rule:evenodd;stroke:#000000;stroke-width:0.036;stroke-miterlimit:10"
         id="path127"
         inkscape:connector-curvature="0" /><polygon
         points="208.06,183.95 319.05,164.33 346.2,155.65 339.03,193.02 "
         style="fill:#ff8080;fill-rule:evenodd;stroke:#000000;stroke-width:0.036;stroke-miterlimit:10"
         id="polygon129" /><path
         d="m 370.82,219.09 c -3.38,-4.83 -4.93,-8.82 -5.08,-11.99 -0.14,-3.28 1.41,-5.58 4.5,-7.2 -1.94,-2.67 -2.91,-5.37 -3.31,-8.1 -0.43,-2.88 0.29,-6.34 1.19,-8.43 0.79,-2.12 1.37,-2.95 4.21,-3.88 2.88,-1.01 8.57,-2.42 12.89,-2.13 4.18,0.11 9.9,1.12 12.31,3.31 2.16,2.27 1.51,6.45 1.51,9.62 -0.03,2.98 -0.21,6.01 -1.51,8.1 -1.29,1.87 -2.7,3.02 -6.59,3.6 -4.14,0.46 -9.9,0.5 -17.71,-0.29 -2.27,1.65 -3.42,3.71 -3.31,6.3 0,2.59 3.42,7.02 3.6,9 0.04,1.87 -0.69,2.52 -2.7,2.09 z"
         style="fill-rule:evenodd;stroke:#000000;stroke-width:0.036;stroke-miterlimit:10"
         id="path131"
         inkscape:connector-curvature="0" /><path
         d="m 373.84,199.57 c -2.19,-1.94 -3.6,-4.14 -4.21,-6.58 -0.72,-2.52 -1.4,-6.02 0.29,-8.1 1.76,-2.16 5.62,-4.04 9.9,-4.5 4.17,-0.54 8.89,0 14.72,1.47 -7.66,5.04 -11.88,8.1 -12.92,9.33 -1.01,1.08 4.35,-0.87 6.91,-2.09 2.49,-1.15 5.04,-2.81 7.81,-4.83 0.58,4 0.62,7.2 -0.28,9.62 -0.94,2.26 -2.6,3.81 -4.83,4.78 -2.45,0.83 -5.72,0.76 -8.71,0.9 -2.95,0.15 -5.8,0.15 -8.68,0 z"
         style="fill:#c0c0c0;fill-rule:evenodd;stroke:#000000;stroke-width:0.036;stroke-miterlimit:10"
         id="path133"
         inkscape:connector-curvature="0" /><path
         d="m 414.59,82.358 c 3.68,-3.636 5.77,-8.136 6.41,-13.896 0.58,-5.868 -1.54,-15.408 -2.91,-20.412 -1.48,-4.932 -2.16,-6.444 -5.8,-9.396 -3.78,-3.132 -9.54,-6.876 -16.31,-9 -7.02,-2.304 -17.71,-4.32 -24.44,-4.104 -6.7,0.216 -11.74,3.456 -15.12,5.544 -3.42,2.052 -5.11,4.248 -5.22,6.732 -2.31,-1.728 -4.39,-2.484 -6.41,-2.664 -2.01,-0.18 -4.82,0.432 -5.51,1.836 -0.86,1.332 0.54,3.853 0.87,6.156 0.21,2.196 0.97,2.952 0.86,7.128 -0.29,4.104 -1.51,14.076 -1.73,17.568 -0.25,3.384 0.04,4.392 0.58,2.88 -6.27,-0.468 -10.59,-0.468 -13.36,0.396 -2.73,0.756 -3.06,2.232 -2.92,4.284 -0.03,1.908 0.94,5.076 3.21,7.56 2.23,2.412 7.38,5.58 10.15,7.164 2.63,1.548 4.43,2.34 5.54,2.232 l -0.57,3.06 c -3.13,-1.152 -5.36,-1.368 -6.7,-0.792 -1.55,0.612 -1.9,2.412 -1.47,4.284 0.47,1.802 2.12,4.822 4.68,6.552 2.52,1.58 9.36,1.94 10.37,3.17 0.75,1.19 -4.68,2.52 -4.79,3.99 -0.08,1.52 1.8,4.14 4.5,4.4 2.63,0 6.4,-1.19 11.34,-3.96 -4.18,7.74 -6.63,13.39 -7.49,17.1 -0.9,3.6 -0.07,3.74 2.34,4.89 2.48,1.15 6.37,1.73 12.2,1.87 -1,1.23 -1.73,3.5 -2.01,6.95 -0.47,3.53 -2.09,10.73 0,13.68 2.09,2.67 6.62,2.85 12.78,3.06 6.08,0.25 18.75,0.36 23.87,-1.62 4.93,-2.12 4.46,-6.59 6.08,-11.05 1.51,-4.64 1.98,-9.79 3.49,-16.13 1.51,-6.41 3.31,-13.57 5.54,-21.89 l -1.47,-2.01 c 2.95,0 5.76,-0.22 8.42,-1.05 2.67,-0.86 5.65,-1.94 7.56,-3.67 1.77,-1.8 2.7,-4.714 3.21,-6.946 0.32,-2.412 0.03,-4.788 -0.58,-6.732 -0.72,-2.016 -2.16,-3.24 -3.2,-4.5 -1.12,-1.296 -1.66,-2.196 -3.17,-2.844 -1.62,-0.756 -4.36,-1.26 -6.41,-1.224 -2.09,0 -4.35,0.468 -6.41,1.404 z"
         style="fill-rule:evenodd;stroke:#000000;stroke-width:0.036;stroke-miterlimit:10"
         id="path135"
         inkscape:connector-curvature="0" /><path
         d="m 339.28,72.566 c -3.49,-1.008 -6.15,-1.26 -8.13,-1.044 -2.09,0.108 -3.35,0.936 -3.78,2.484 -0.54,1.584 -0.62,4.5 1.15,6.948 1.76,2.34 6.15,5.364 9.29,7.128 2.95,1.62 5.36,2.088 8.74,2.664 3.39,0.504 7.64,1.008 11.34,0.396 3.64,-0.756 8.79,-2.7 10.19,-4.284 1.23,-1.62 0.4,-3.276 -2.62,-5.112 4.28,1.584 6.76,3.024 7.84,4.32 1.01,1.116 0.47,2.196 -1.76,3.24 -2.48,1.08 -7.67,2.592 -12.21,3.276 -4.53,0.648 -9.43,0.684 -14.83,0.396 l 0.29,2.664 c 2.05,0.072 3.57,0.468 4.97,1.044 1.26,0.54 2.27,1.404 2.88,2.448 1.33,-1.98 3.31,-3.348 5.54,-4.104 2.16,-0.828 4.5,-0.756 8.14,-0.612 3.71,0.036 9.94,0.972 13.97,1.008 3.89,-0.108 7.27,-0.792 9.57,-1.224 2.2,-0.432 3.46,-0.9 3.78,-1.404 -0.25,1.26 -1.65,2.808 -4.06,4.5 -2.63,1.656 -7.89,4.252 -10.77,5.692 -2.84,1.36 -3.31,1.65 -5.83,2.52 -2.59,0.72 -6.23,1.36 -9.54,2.08 -3.46,0.62 -7.88,0.87 -10.77,1.88 -3.05,1.08 -6.26,2.91 -6.55,3.99 -0.21,0.9 2.6,1.69 5.37,1.26 2.7,-0.65 6.19,-2.05 10.76,-4.61 -2.27,7.71 -3.78,13.25 -4.93,17.21 -1.15,3.78 -3.13,4.72 -1.66,5.87 1.48,1.04 6.59,1.19 10.48,1.26 3.85,0 10.11,-0.9 12.38,-0.61 2.09,0.18 1.59,1.76 0.29,2.27 -1.37,0.46 -6.3,-0.26 -8.14,0.61 -1.83,0.75 -2.37,1.26 -2.87,4.28 -0.65,2.99 -3.03,10.66 -0.62,13.68 2.49,2.85 9.29,3.64 15.12,3.89 5.73,0.18 14.94,-0.11 18.9,-2.66 3.68,-2.67 2.34,-7.06 3.78,-12.64 1.48,-5.72 3.14,-14.83 4.97,-20.66 1.73,-5.84 3.42,-10.37 5.22,-13.9 -1.98,0.79 -3.67,0.86 -5.22,0.22 -1.58,-0.76 -3.64,-3.21 -4.07,-4.29 -0.5,-1.11 0.08,-1.98 1.44,-2.45 0.58,1.55 1.98,2.7 4.36,3.46 2.3,0.68 6.66,1.19 9.61,0.83 2.88,-0.43 5.54,-1.55 7.56,-3.49 1.87,-2.09 3.78,-5.944 3.78,-8.788 -0.22,-2.988 -2.27,-7.02 -4.35,-8.784 -2.16,-1.728 -5.12,-1.836 -7.89,-1.836 -2.74,-0.108 -5.54,0.252 -8.42,1.224 2.12,-2.16 3.63,-5.76 4.68,-10.8 0.97,-5.256 1.73,-14.112 1.15,-19.62 -0.76,-5.472 -2.06,-9 -5.26,-12.672 -3.31,-3.744 -9.43,-7.092 -13.93,-9.216 -4.5,-2.232 -7.38,-3.132 -12.82,-3.672 -5.61,-0.648 -14.93,-1.08 -20.34,0.216 -5.5,1.296 -9.75,5.508 -11.91,7.344 -2.09,1.62 -2.52,2.556 -0.9,2.664 -2.67,-1.512 -5.08,-2.448 -6.95,-2.664 -1.94,-0.324 -3.64,0.252 -4.68,1.044 -1.19,0.684 -2.23,1.692 -2.02,3.456 0.25,1.764 1.19,3.888 3.21,6.768 -0.97,8.28 -1.95,16.596 -2.92,24.912 z"
         style="fill:#ffc080;fill-rule:evenodd;stroke:#000000;stroke-width:0.036;stroke-miterlimit:10"
         id="path137"
         inkscape:connector-curvature="0" /><path
         d="m 409.66,90.53 c 1.8,0.972 3.49,1.656 4.93,2.052 1.45,0.36 3.21,0.36 3.79,0 0.46,-0.54 -0.47,-2.412 -1.16,-2.844 -0.79,-0.54 -1.9,-0.612 -3.49,-0.216 2.63,-1.332 4.75,-1.584 6.37,-1.044 1.59,0.576 3.86,2.448 3.21,4.5 -0.72,2.052 -6.34,6.732 -7.27,7.382 -1.05,0.47 1.47,-3.386 1.18,-4.322 -0.46,-0.936 -2.23,-0.828 -3.49,-1.62 -1.33,-0.936 -2.56,-2.232 -4.07,-3.888 z"
         style="fill-rule:evenodd;stroke:#000000;stroke-width:0.036;stroke-miterlimit:10"
         id="path139"
         inkscape:connector-curvature="0" /><path
         d="m 403.54,74.186 c -4.32,-0.756 -7.77,-1.224 -10.76,-1.404 -3.06,-0.216 -6.41,-0.612 -6.98,0.18 -0.51,0.72 1.72,2.52 3.77,4.284 1.84,1.692 4.36,3.672 7.57,5.94 -5.01,-4.248 -7.39,-6.876 -6.99,-8.172 0.29,-1.224 6.77,0.648 9.04,0.612 2.23,-0.18 3.63,-0.612 4.35,-1.44 z"
         style="fill-rule:evenodd;stroke:#000000;stroke-width:0.036;stroke-miterlimit:10"
         id="path141"
         inkscape:connector-curvature="0" /><path
         d="m 375.32,109.14 c 0.25,0.29 -2.45,2.99 -4.07,4.5 -1.69,1.44 -4.79,3.42 -5.79,3.85 -1.05,0.22 -1.01,-1.15 -0.29,-2.01 0.68,-1.01 2.55,-2.45 4.35,-3.49 1.59,-1.12 5.51,-3.17 5.8,-2.85 z"
         style="fill-rule:evenodd;stroke:#000000;stroke-width:0.036;stroke-miterlimit:10"
         id="path143"
         inkscape:connector-curvature="0" /><path
         d="m 386.08,96.686 c -4.5,0.036 -8.56,0.036 -12.49,0 -4,-0.216 -8.28,-0.54 -10.76,-0.432 -2.42,0.072 -2.67,0.252 -4.07,1.224 -1.59,1.008 -3.28,2.376 -5.22,4.502 -1.37,-1.62 -3.35,-2.774 -5.55,-3.458 -2.3,-0.828 -6.4,-1.152 -8.13,-0.828 -1.77,0.324 -2.92,1.728 -2.63,2.846 0.07,0.97 1.33,2.59 3.49,3.49 2.2,0.83 5.58,1.37 9.61,1.62 3.96,0.11 9.44,0.18 13.94,-0.61 4.43,-0.9 8.46,-2.88 12.23,-4.29 3.68,-1.364 6.74,-2.768 9.58,-4.064 z"
         style="fill:#ff0000;fill-rule:evenodd;stroke:#000000;stroke-width:0.036;stroke-miterlimit:10"
         id="path145"
         inkscape:connector-curvature="0" /><path
         d="m 375.94,46.998 c 11.82,0 21.42,5.581 21.42,12.456 0,6.876 -9.6,12.456 -21.42,12.456 -11.82,0 -21.42,-5.58 -21.42,-12.456 0,-6.876 9.6,-12.456 21.42,-12.456"
         style="fill-rule:evenodd;stroke:#000000;stroke-width:0.036;stroke-miterlimit:10"
         id="path147"
         inkscape:connector-curvature="0" /><path
         d="m 375.34,50.85 c 9.2,0 16.67,4.338 16.67,9.684 0,5.346 -7.47,9.684 -16.67,9.684 -9.2,0 -16.67,-4.338 -16.67,-9.684 0,-5.346 7.47,-9.684 16.67,-9.684"
         style="fill:#ffffff;fill-rule:evenodd;stroke:#000000;stroke-width:0.036;stroke-miterlimit:10"
         id="path149"
         inkscape:connector-curvature="0" /><path
         d="m 372.58,59.106 c 2.45,0 4.43,1.016 4.43,2.268 0,1.252 -1.98,2.268 -4.43,2.268 -2.44,0 -4.43,-1.016 -4.43,-2.268 0,-1.252 1.99,-2.268 4.43,-2.268"
         style="fill-rule:evenodd;stroke:#000000;stroke-width:0.036;stroke-miterlimit:10"
         id="path151"
         inkscape:connector-curvature="0" /><path
         d="m 337.42,45.87 c 11.07,0 20.06,5.226 20.06,11.664 0,6.438 -8.99,11.664 -20.06,11.664 -11.07,0 -20.05,-5.226 -20.05,-11.664 0,-6.438 8.98,-11.664 20.05,-11.664"
         style="fill-rule:evenodd;stroke:#000000;stroke-width:0.036;stroke-miterlimit:10"
         id="path153"
         inkscape:connector-curvature="0" /><path
         d="m 336.82,49.542 c 8.61,0 15.59,4.064 15.59,9.072 0,5.008 -6.98,9.072 -15.59,9.072 -8.6,0 -15.59,-4.064 -15.59,-9.072 0,-5.008 6.99,-9.072 15.59,-9.072"
         style="fill:#ffffff;fill-rule:evenodd;stroke:#000000;stroke-width:0.036;stroke-miterlimit:10"
         id="path155"
         inkscape:connector-curvature="0" /><path
         d="m 334.3,57.21 c 2.29,0 4.14,0.952 4.14,2.124 0,1.173 -1.85,2.124 -4.14,2.124 -2.28,0 -4.14,-0.951 -4.14,-2.124 0,-1.172 1.86,-2.124 4.14,-2.124"
         style="fill-rule:evenodd;stroke:#000000;stroke-width:0.036;stroke-miterlimit:10"
         id="path157"
         inkscape:connector-curvature="0" /><path
         d="m 393.36,53.954 c 0.1,-1.116 0.93,-1.728 2.62,-1.836 1.66,-0.108 4.04,0.252 7.27,1.224 -2.55,-0.36 -4.5,-0.108 -5.83,0.612 -1.33,0.72 -2.19,1.908 -2.3,3.708 z"
         style="fill-rule:evenodd;stroke:#000000;stroke-width:0.036;stroke-miterlimit:10"
         id="path159"
         inkscape:connector-curvature="0" /><path
         d="m 388.93,50.966 c -2.38,-1.188 -2.63,-2.412 -0.61,-3.672 1.94,-1.332 6.08,-2.556 12.42,-3.96 -4.25,0.972 -6.77,2.412 -8,4.32 -1.18,1.872 -0.93,4.14 0.9,6.948 z"
         style="fill-rule:evenodd;stroke:#000000;stroke-width:0.036;stroke-miterlimit:10"
         id="path161"
         inkscape:connector-curvature="0" /><path
         d="m 378.13,47.906 c -2.59,-1.044 -2.92,-2.196 -1.12,-3.6 1.77,-1.44 5.73,-2.988 11.88,-4.788 -3.99,1.224 -6.51,2.88 -7.41,4.824 -0.9,1.908 -0.33,4.248 1.87,6.876 z"
         style="fill-rule:evenodd;stroke:#000000;stroke-width:0.036;stroke-miterlimit:10"
         id="path163"
         inkscape:connector-curvature="0" /><path
         d="m 368.23,48.698 c -2.38,-0.144 -3.32,-1.116 -2.52,-2.52 0.75,-1.512 2.99,-3.636 6.84,-6.372 -2.56,1.872 -3.6,3.672 -3.42,5.4 0.21,1.764 1.65,3.24 4.6,4.824 z"
         style="fill-rule:evenodd;stroke:#000000;stroke-width:0.036;stroke-miterlimit:10"
         id="path165"
         inkscape:connector-curvature="0" /><path
         d="m 325.67,50.138 c 2.06,-0.864 2.35,-1.872 0.87,-3.024 -1.58,-1.152 -4.79,-2.448 -9.9,-3.888 3.42,0.972 5.36,2.34 6.23,3.96 0.79,1.548 0.25,3.492 -1.48,5.688 z"
         style="fill-rule:evenodd;stroke:#000000;stroke-width:0.036;stroke-miterlimit:10"
         id="path167"
         inkscape:connector-curvature="0" /><path
         d="m 349.15,50.246 c 2.05,0.864 3.38,0.504 4.14,-0.936 0.72,-1.476 0.61,-4.176 -0.04,-7.956 0.32,2.52 -0.25,4.428 -1.87,5.724 -1.66,1.26 -4.25,1.908 -7.78,1.944 z"
         style="fill-rule:evenodd;stroke:#000000;stroke-width:0.036;stroke-miterlimit:10"
         id="path169"
         inkscape:connector-curvature="0" /><path
         d="m 340.69,48.374 c 2.37,0.432 3.53,-0.288 3.6,-1.764 0.03,-1.656 -1.05,-4.068 -3.24,-7.632 1.33,2.448 1.51,4.284 0.54,5.904 -1.08,1.548 -3.31,2.628 -6.7,3.384 z"
         style="fill-rule:evenodd;stroke:#000000;stroke-width:0.036;stroke-miterlimit:10"
         id="path171"
         inkscape:connector-curvature="0" /><path
         d="m 331.98,47.222 c 2.69,-0.648 3.56,-1.728 2.19,-3.384 -1.4,-1.656 -4.64,-3.744 -10.11,-6.408 3.49,1.872 5.4,3.672 5.72,5.796 0.29,2.088 -1.01,4.104 -3.89,6.444 z"
         style="fill-rule:evenodd;stroke:#000000;stroke-width:0.036;stroke-miterlimit:10"
         id="path173"
         inkscape:connector-curvature="0" /><path
         d="m 343.64,48.05 c -9.47,-4.14 -15.05,-8.856 -17.14,-14.292 -2.05,-5.616 -0.03,-15.264 4.94,-18.396 4.93,-3.096 12.88,-3.096 24.4,0 1.73,-4.824 5.76,-8.46 12.24,-11.052 6.52,-2.628 15.84,-4.428 26.46,-4.284 10.59,0 25.06,0.864 36.33,5.112 11.09,4.248 23.25,11.52 30.24,20.412 6.84,8.892 11.12,21.996 11.05,32.112 -0.25,10.008 -9.86,20.556 -11.92,27.36 -2.05,6.696 -2.05,8.28 -0.28,12.672 1.69,4.216 8.42,7.916 10.47,13.066 1.91,5.15 3.31,11.52 1.44,17.57 -2.01,6.05 -7.67,13.86 -12.78,18 -5.11,3.92 -10.98,5.83 -17.75,5.72 6.48,-3.85 10.48,-7.81 12.53,-12.27 1.91,-4.47 1.66,-9.04 -0.9,-14.11 0.25,7.88 -2.12,13.39 -7.27,16.95 -5.22,3.42 -12.92,4.72 -23.54,3.89 7.7,-1.58 12.74,-4.46 15.4,-8.78 2.56,-4.4 2.7,-9.87 0.29,-16.96 -0.11,3.49 -1.51,6.37 -4.35,8.78 -2.88,2.34 -6.95,4.18 -12.5,5.51 4.32,-0.9 5.87,-3.53 4.65,-8.17 -1.3,-4.64 -5.37,-11.12 -12.21,-19.58 5.94,-0.11 10.44,-0.8 13.65,-2.06 3.13,-1.36 4.28,-3.2 5.25,-5.504 0.9,-2.412 0.87,-5.508 0.29,-8.172 -0.72,-2.7 -2.12,-6.048 -4.07,-7.56 -2.05,-1.656 -4.75,-1.656 -7.56,-1.656 -2.77,0 -5.83,0.612 -9.03,1.836 2.45,-2.664 3.96,-7.02 4.68,-13.068 0.65,-6.228 1.83,-17.388 -0.61,-23.472 -2.63,-6.084 -7.74,-9.684 -14.51,-12.888 -6.84,-3.348 -18.22,-6.552 -25.92,-6.552 -7.78,0.036 -16.78,4.428 -20.34,6.768 -3.67,2.304 -4.11,4.572 -1.44,6.948 -1.77,-2.16 -3.56,-3.6 -5.54,-4.32 -2.09,-0.72 -5.05,-0.72 -6.38,0 -1.4,0.684 -2.12,2.232 -1.76,4.104 0.29,1.764 1.4,3.78 3.49,6.336 z"
         style="fill-rule:evenodd;stroke:#000000;stroke-width:0.036;stroke-miterlimit:10"
         id="path175"
         inkscape:connector-curvature="0" /><path
         d="m 338.13,42.326 c -4.14,-2.556 -6.77,-5.22 -8.17,-8.388 -1.44,-3.204 -0.61,-7.596 0,-10.404 0.5,-2.844 0.79,-5.004 3.49,-6.336 2.7,-1.404 8.96,-2.016 12.53,-1.836 3.35,0.144 6.01,0.972 7.85,2.628 -1.59,1.656 -2.52,4.176 -3.21,7.164 -0.57,3.132 -0.9,6.588 -0.57,11.052 -4.61,-1.872 -7.96,-2.232 -9.9,-1.224 -1.98,1.08 -2.7,3.348 -2.02,7.344 z"
         style="fill:#ffff00;fill-rule:evenodd;stroke:#000000;stroke-width:0.036;stroke-miterlimit:10"
         id="path177"
         inkscape:connector-curvature="0" /><path
         d="m 343.35,19.43 c -1.65,0.396 -2.95,1.44 -3.49,3.672 -0.72,2.124 -0.69,5.076 -0.29,9 -1.94,-1.296 -3.06,-2.7 -3.49,-4.5 -0.5,-1.836 -0.36,-4.752 0.86,-6.12 1.19,-1.404 3.28,-2.088 6.41,-2.052 z"
         style="fill-rule:evenodd;stroke:#000000;stroke-width:0.036;stroke-miterlimit:10"
         id="path179"
         inkscape:connector-curvature="0" /><path
         d="m 351.78,34.154 c 0.75,-2.844 2.01,-6.048 3.77,-9.612 1.73,-3.636 2.49,-8.46 6.7,-11.844 4.1,-3.456 10.12,-7.092 18.04,-8.568 7.92,-1.512 19.33,-1.764 28.79,-0.612 9.33,1.044 18.29,2.628 27.04,7.128 8.78,4.536 19.62,12.744 25.27,19.62 5.48,6.732 6.66,14.58 7.6,20.628 0.72,5.868 -0.43,9.36 -2.63,14.94 -2.27,5.544 -8.67,12.528 -10.48,18.18 -1.83,5.472 -2.16,10.044 -0.28,14.688 1.87,4.538 9.03,7.808 11.34,12.888 2.23,5.04 3.09,11.59 1.76,17.17 -1.55,5.4 -7.78,12.03 -10.76,15.3 -3.03,3.24 -5.4,4.61 -7.28,4.11 4.69,-3.89 7.46,-7.38 8.72,-10.62 1.01,-3.28 -0.36,-5.66 -1.73,-8.79 -1.41,-3.17 -3.49,-6.62 -6.41,-10.22 -0.43,4.53 -1.11,8.35 -2.05,11.84 -0.97,3.49 -1.73,6.3 -3.78,8.57 -2.2,2.12 -5.29,3.56 -9.29,4.32 3.35,-2.77 5.44,-5.87 6.41,-9.43 0.86,-3.64 0.29,-8.79 -0.9,-11.85 -1.19,-3.09 -3.42,-5.22 -6.41,-6.51 0.29,3.13 -0.14,5.83 -1.15,7.95 -1.11,2.16 -2.81,3.75 -5.22,4.9 -1.22,-3.89 -2.77,-7.45 -4.93,-10.84 -2.16,-3.49 -4.79,-6.44 -7.89,-9.39 3.96,0.11 7.17,-0.36 10.19,-1.41 2.88,-1.18 5.91,-2.01 7.27,-5.11 1.3,-3.166 1.95,-10.114 0.58,-13.498 -1.55,-3.563 -6.27,-5.832 -9.29,-6.948 -3.13,-1.116 -6.05,-0.864 -9.04,0.612 2.89,-1.656 4.83,-4.896 5.84,-9.576 0.94,-4.896 1.58,-12.744 0,-18.828 -1.8,-6.192 -4.83,-13.068 -10.19,-17.568 -5.54,-4.5 -14.44,-7.56 -22.11,-9.18 -7.77,-1.764 -17.24,-2.088 -23.54,-0.828 -6.3,1.224 -10.91,4.068 -13.96,8.388 z"
         style="fill:#ffff00;fill-rule:evenodd;stroke:#000000;stroke-width:0.036;stroke-miterlimit:10"
         id="path181"
         inkscape:connector-curvature="0" /><path
         d="m 423.92,9.854 c 8.71,3.384 15.73,7.38 21.2,11.844 5.37,4.464 9,8.784 11.34,14.904 2.27,6.084 3.42,14.688 2.63,21.24 -0.94,6.444 -3.27,11.916 -7.56,16.956 3.96,-7.992 5.65,-15.66 5.51,-23.292 -0.29,-7.704 -1.55,-15.3 -6.98,-22.248 -5.62,-7.02 -14.15,-13.392 -26.14,-19.404 z"
         style="fill-rule:evenodd;stroke:#000000;stroke-width:0.036;stroke-miterlimit:10"
         id="path183"
         inkscape:connector-curvature="0" /><path
         d="M 433.49,20.654 C 426.83,14.39 419.02,10.718 409.38,9.242 399.65,7.73 388.93,8.81 376.22,12.086 c 9.47,-1.836 18.86,-2.088 28.48,-0.612 9.57,1.404 19.08,4.464 28.79,9.18 z"
         style="fill-rule:evenodd;stroke:#000000;stroke-width:0.036;stroke-miterlimit:10"
         id="path185"
         inkscape:connector-curvature="0" /><path
         d="m 422.15,31.49 c 2.56,1.188 4.65,3.096 6.41,5.724 1.77,2.556 3.67,5.652 4.07,9.828 0.22,4.068 -0.43,8.964 -2.34,14.688 5.26,-3.996 7.6,-8.1 7.56,-12.852 -0.25,-4.86 -5.8,-12.42 -8.43,-15.336 -2.66,-2.916 -5.03,-3.6 -7.27,-2.052 z"
         style="fill-rule:evenodd;stroke:#000000;stroke-width:0.036;stroke-miterlimit:10"
         id="path187"
         inkscape:connector-curvature="0" /><path
         d="m 455.31,108.93 c 3.46,2.12 5.65,4.64 6.99,7.56 1.26,2.91 1.4,6.08 0.57,9.79 -0.72,-3.96 -1.69,-7.31 -2.91,-10.19 -1.3,-2.95 -2.85,-5.29 -4.65,-7.16 z"
         style="fill-rule:evenodd;stroke:#000000;stroke-width:0.036;stroke-miterlimit:10"
         id="path189"
         inkscape:connector-curvature="0" /><path
         d="m 440.48,106.08 c 1.94,1.48 3.49,3.49 4.64,5.91 1.08,2.37 1.77,5.29 2.06,8.6 -1.44,-3.31 -2.7,-6.23 -3.78,-8.6 -1.16,-2.42 -2.13,-4.43 -2.92,-5.91 z"
         style="fill-rule:evenodd;stroke:#000000;stroke-width:0.036;stroke-miterlimit:10"
         id="path191"
         inkscape:connector-curvature="0" /><path
         d="m 445.7,80.738 c -0.54,0.576 -1.12,1.98 -1.73,4.068 -0.76,2.016 -2.74,5.364 -2.05,8.388 0.72,2.952 2.81,6.084 6.4,9.396 -2.48,-2.02 -3.88,-4.68 -4.35,-8.388 -0.47,-3.708 0.11,-8.064 1.73,-13.464 z"
         style="fill-rule:evenodd;stroke:#000000;stroke-width:0.036;stroke-miterlimit:10"
         id="path193"
         inkscape:connector-curvature="0" /><path
         d="m 361.35,105.97 h 4.21 c 0.65,1.98 0.47,3.57 -0.39,4.76 -1.01,1.08 -2.56,1.76 -5.08,2.05 0.4,-2.27 0.83,-4.54 1.26,-6.81 z"
         style="fill-rule:evenodd;stroke:#000000;stroke-width:0.036;stroke-miterlimit:10"
         id="path195"
         inkscape:connector-curvature="0" /><path
         d="m 364.73,108.64 c 0,0 -3.49,3.49 -7.59,5.04 -4.14,1.55 -4.65,1.26 -7.17,1.47 -2.55,0.22 -3.27,-0.14 -3.81,-1.18 -0.54,-1.05 -0.65,-1.55 1.69,-2.96 2.3,-1.4 4.64,-3.06 9.29,-3.56 4.64,-0.5 7.59,1.19 7.59,1.19 z"
         style="fill:#ff0000;fill-rule:evenodd"
         id="path197"
         inkscape:connector-curvature="0" /><path
         d="m 306.78,167.79 c -1.8,0.39 -1.8,0.39 0,0 1.72,-0.36 6.55,-0.26 10.58,-2.45 4,-2.38 8.53,-7.96 13.06,-11.59 4.36,-3.82 7.82,-10.26 13.29,-10.59 5.47,-0.29 11.74,2.63 19.19,8.89 2.09,3.53 6.26,5.55 12.81,5.91 6.56,0.32 17.97,-4.11 26.07,-3.71 8.06,0.4 16.49,3.2 21.67,5.9 5.04,2.63 7.77,5.87 8.35,9.87 l 0.51,21.27 -82.66,20.74 c -2.05,-4.32 -3.56,-7.78 -4.97,-10.76 -1.37,-2.99 -2.48,-5.3 -3.2,-6.92 0.93,-4.89 0.93,-8.53 0,-11.05 -1.08,-2.66 -1.8,-4.1 -5.91,-4.17 -4.17,0 -10.47,1.22 -18.9,3.96 -1.29,-2.38 -2.69,-4.9 -4.35,-7.42 -1.69,-2.66 -3.49,-5.11 -5.54,-7.88 z"
         style="fill-rule:evenodd;stroke:#000000;stroke-width:0.036;stroke-miterlimit:10"
         id="path199"
         inkscape:connector-curvature="0" /><path
         d="m 309.98,169.77 c 2.02,-0.11 3.78,0.79 5.44,2.7 1.62,1.94 3.09,4.68 4.42,8.6 5.04,-2.05 9.51,-3.28 13.54,-3.67 3.92,-0.47 8.93,-1.73 10.58,1.22 1.62,2.99 1.37,8.39 -0.75,16.49 1.01,1.37 1.62,2.88 2.23,4.93 0.4,2.02 0.4,5.01 0.97,6.88 0.54,1.76 1.37,2.91 2.49,3.6 l 80.02,-19.62 c 1.77,-4.61 2.27,-9.04 1.66,-13.29 -0.65,-4.32 -2.02,-8.96 -5.65,-12.27 -3.82,-3.42 -10.23,-6.84 -16.74,-7.63 -6.55,-0.9 -16.24,2.08 -22.39,2.7 -6.31,0.61 -10.12,2.19 -14.76,0.72 -4.68,-1.59 -8.9,-7.67 -13.32,-10.08 -4.54,-2.6 -9.58,-5.26 -13.76,-4.68 -4.32,0.57 -7.81,5.18 -11.59,8.38 -3.85,3.1 -7.34,7.74 -11.05,10.34 -3.75,2.52 -7.52,4.03 -11.34,4.68 z"
         style="fill:#80ffc0;fill-rule:evenodd;stroke:#000000;stroke-width:0.036;stroke-miterlimit:10"
         id="path201"
         inkscape:connector-curvature="0" /><path
         d="m 290.72,191.8 -5.58,-0.87 c 0.94,-3.6 3.1,-6.8 6.62,-9.61 3.46,-2.91 9.15,-5.97 14.3,-7.38 5.22,-1.37 10.9,-1.69 16.48,-0.97 5.4,0.54 11.99,2.09 15.74,4.64 3.52,2.52 5.21,7.53 5.9,10.59 0.72,3.06 0.11,5.4 -1.69,7.41 l -2.7,-1.98 c 0.97,-3.06 0.68,-5.72 -0.87,-8.13 -1.72,-2.41 -4.86,-5.04 -8.71,-6.34 -3.89,-1.44 -9.86,-2.05 -14.18,-1.98 -4.47,-0.11 -8.28,0.51 -11.99,1.98 -3.82,1.59 -8.06,5.01 -10.26,7.2 -2.27,2.13 -3.24,3.89 -3.06,5.44 z"
         style="fill-rule:evenodd;stroke:#000000;stroke-width:0.036;stroke-miterlimit:10"
         id="path203"
         inkscape:connector-curvature="0" /><path
         d="m 296.52,170.85 c -2.56,-0.76 -4.58,-0.83 -6.34,-0.22 -1.91,0.54 -4.32,1.12 -4.03,3.82 0.29,2.62 3.89,8.67 6.08,12.16 2.2,3.35 4.43,6.66 6.99,8.14 2.44,1.3 6.04,1.12 7.88,0.43 1.73,-0.75 2.63,-2.16 2.7,-4.5 1.04,0.61 2.23,0.94 3.85,1.12 1.51,0.11 3.96,-0.04 5.4,-0.43 1.37,-0.47 2.52,-1.55 2.92,-2.27 0.28,-0.87 0.03,-1.77 -0.9,-2.7 2.27,1.26 4.25,1.98 6.08,2.01 1.77,0.04 3.67,-0.79 4.75,-1.8 1.01,-1.26 1.98,-2.91 1.12,-4.96 -1.04,-2.13 -5.76,-4.97 -6.77,-7.42 -1.08,-2.56 1.51,-5.04 0.69,-7.45 -0.9,-2.52 -3.46,-6.27 -5.87,-7.2 -2.45,-0.9 -6.95,0.5 -8.79,1.58 -1.98,0.94 -2.66,2.41 -2.48,4.29 -2.59,-2.2 -5.04,-2.67 -7.2,-1.8 -2.27,0.93 -4.25,3.2 -6.08,7.2 z"
         style="fill-rule:evenodd;stroke:#000000;stroke-width:0.036;stroke-miterlimit:10"
         id="path205"
         inkscape:connector-curvature="0" /><path
         d="m 319.27,160.69 c -1.91,-0.07 -5.51,1.01 -6.77,2.27 -1.33,1.08 -1.33,2.41 -0.69,4.97 0.69,2.59 2.92,7.74 4.76,10.58 1.65,2.74 3.45,4.32 5.4,5.87 1.87,1.48 4.03,2.95 5.65,2.92 1.62,-0.22 3.56,-2.09 3.6,-3.82 -0.22,-1.87 -3.14,-5.51 -4.28,-7.02 -1.19,-1.44 -1.52,-1.51 -2.49,-2.01 -1.12,-0.69 -3.81,-1.48 -3.81,-1.8 -0.11,-0.33 2.8,0.32 3.6,-0.44 0.75,-1.04 1,-3.49 0.9,-4.96 -0.18,-1.48 -0.83,-2.81 -1.81,-3.86 -1.04,-1.15 -2.3,-2.7 -4.06,-2.7 z"
         style="fill:#ffc080;fill-rule:evenodd;stroke:#000000;stroke-width:0.036;stroke-miterlimit:10"
         id="path207"
         inkscape:connector-curvature="0" /><path
         d="m 308.47,166.09 c -2.06,-1.08 -3.89,-1.22 -5.65,-0.43 -1.77,0.79 -4.5,2.85 -4.76,5.19 -0.39,2.23 1.12,5.76 2.74,8.35 1.51,2.45 4.68,4.79 6.73,6.73 1.84,1.91 3.6,3.92 5.44,4.54 1.91,0.36 4.86,-1.01 6.08,-1.59 1.12,-0.54 1.12,-0.79 1.12,-1.58 0,-0.87 -0.26,-1.95 -0.9,-3.39 -2.13,-2.44 -4.03,-5.14 -5.87,-8.1 -1.87,-2.98 -3.42,-6.22 -4.93,-9.72 z"
         style="fill:#ffc080;fill-rule:evenodd;stroke:#000000;stroke-width:0.036;stroke-miterlimit:10"
         id="path209"
         inkscape:connector-curvature="0" /><path
         d="m 296.73,173.33 c -2.34,-1.04 -4.18,-1.51 -5.65,-1.12 -1.51,0.33 -3.35,1.19 -3.13,3.14 0.14,1.83 2.55,5.61 4.03,8.13 1.37,2.38 2.52,4.65 4.28,6.52 1.77,1.83 4,3.49 5.87,4.28 1.73,0.65 3.2,0.11 4.28,-0.21 0.94,-0.51 0.94,-1.19 1.37,-2.06 0.25,-0.9 0.61,-1.94 0.69,-3.13 -3.17,-1.76 -5.73,-3.99 -7.67,-6.55 -2.02,-2.63 -3.28,-5.58 -4.07,-9 z"
         style="fill:#ffc080;fill-rule:evenodd;stroke:#000000;stroke-width:0.036;stroke-miterlimit:10"
         id="path211"
         inkscape:connector-curvature="0" /><path
         d="m 155.61,193.02 c 3.53,-10.51 7.89,-21.74 13.21,-34.38 5.33,-12.63 11.31,-25.99 18.47,-40.75 21.17,0.11 46.05,0.68 75.89,1.87 29.91,1.08 63.29,2.77 101.91,4.93 -1.07,14.55 -2.37,28.19 -4.17,41.91 -1.84,13.61 -3.93,26.46 -6.41,39.24 -7.38,1.83 -12.49,3.42 -15.48,4.89 -2.99,1.52 -3.74,2.6 -2.27,3.78 -10.62,-3.56 -23.4,-6.4 -38.88,-8.67 -15.73,-2.31 -36,-3.24 -53.57,-4.9 -17.56,-1.83 -35.67,-3.92 -50.58,-5.29 -14.9,-1.37 -27.43,-2.2 -38.12,-2.63 z m 15.09,-12.09 20.77,-52.1 162.28,2.67 -13.57,63.75 z"
         style="fill-rule:evenodd;stroke:#000000;stroke-width:0.036;stroke-miterlimit:10"
         id="path213"
         inkscape:connector-curvature="0" /><path
         d="m 159.03,191.33 c 1.98,-5.26 4.65,-12.02 8.14,-20.7 3.42,-8.82 8.85,-22.61 12.56,-31.07 3.67,-8.42 6.88,-14.58 9.61,-18.86 16.13,0.32 37.98,0.86 66.96,1.47 29.02,0.62 63.54,1.3 105.37,2.2 -11.91,0.29 -24.87,0.79 -39.56,1.12 -14.9,0.28 -32.4,0.79 -48.06,1.11 -15.7,0.29 -30.71,0.69 -44.75,0.76 -13.97,0 -26.6,-0.25 -38.48,-0.76 l -23.65,56.59 c 24.66,1.59 47.34,3.32 69.15,5.19 21.78,1.91 42.84,4.25 60.66,5.9 17.64,1.51 32.37,2.63 44.75,3.35 l 15.16,-68.44 c -16.45,0.15 -30.68,0.15 -43.64,0 -12.96,-0.21 -23.83,-0.54 -33.3,-1.11 18.36,-0.79 33.05,-1.33 44.75,-1.48 11.59,-0.18 18.33,0.07 24.77,0.36 6.37,0.18 10.76,0.43 13.32,0.76 l -10.73,77.65 -14.79,4.82 c 0.25,1.19 -0.29,2.06 -1.48,2.2 -1.19,0.22 0.03,0 -5.91,-1.08 -6.15,-1.26 -15.84,-4.28 -30.7,-6.3 -15.12,-2.12 -40.29,-4.5 -58.43,-6.3 -18.15,-1.87 -35.86,-3.6 -49.54,-4.79 -13.71,-1.26 -24.29,-2.12 -32.18,-2.59 z"
         style="fill:#ff8080;fill-rule:evenodd;stroke:#000000;stroke-width:0.036;stroke-miterlimit:10"
         id="path215"
         inkscape:connector-curvature="0" /><path
         d="m 415.96,154.75 c 5.51,0.15 9.79,1.66 13,4.54 3.2,2.88 5.33,7.16 5.98,12.56 0.39,5.33 -3.82,12.17 -2.92,19.16 0.94,6.87 7.52,17.2 8.24,21.85 0.47,4.39 -3.42,2.59 -4.71,5.15 -1.3,2.59 -0.11,9.25 -2.7,10.11 -2.85,0.58 -7.17,-7.05 -12.96,-5.79 -5.76,1.26 -12.71,5.79 -21.24,13.6 v -5.97 c -2.85,-0.18 -6.16,0.64 -10.08,2.48 -4.07,1.91 -9.25,6.19 -13.61,8.42 -4.36,2.09 -10.08,4.07 -12.17,3.71 -2.09,-0.61 -2.27,-2.73 -0.39,-6.8 -4.9,1.76 -7.67,1.83 -8.46,0.21 -0.8,-1.69 0.39,-5 3.7,-10.08 -3.99,0.04 -6.12,-0.72 -6.37,-2.26 -0.29,-1.62 1.51,-5.08 4.72,-7.02 3.09,-2.02 7.77,-3.5 14.04,-4.72 -5.51,-1.19 -8.93,-2.84 -10.12,-4.97 -1.29,-2.23 0.15,-8.03 2.67,-7.81 2.52,0.22 7.27,7.7 12.16,9.25 4.76,1.48 10.08,1.3 16.28,-0.39 l -3.28,-5.37 c 3.89,-3.78 7.88,-5.97 12.56,-6.59 4.61,-0.72 12.75,4 14.84,2.88 1.9,-1.15 -2.09,-4.64 -3.1,-9.5 -1.12,-5 -2.02,-11.63 -3.1,-20.16 2.34,-5.47 4.68,-10.98 7.02,-16.49 z"
         style="fill-rule:evenodd;stroke:#000000;stroke-width:0.036;stroke-miterlimit:10"
         id="path217"
         inkscape:connector-curvature="0" /><path
         d="m 390.62,204.61 c 3.13,1.88 5.58,5.22 7.2,9.9 1.62,4.72 2.45,10.66 2.48,18.11 3.82,-4.06 7.31,-6.95 10.91,-9.03 3.53,-2.16 6.77,-3.46 10.11,-3.32 3.24,0.11 7.6,4.4 9.47,4.11 1.69,-0.47 0.11,-4.29 1.23,-6.16 1.15,-1.91 5.4,-2.41 5.79,-4.97 0.26,-2.73 -2.37,-7.34 -3.7,-10.9 -1.37,-3.68 -4.22,-5.37 -4.36,-10.52 -0.25,-5.32 3.96,-15.19 3.31,-20.41 -0.75,-5.22 -3.99,-8.46 -7.2,-10.69 -3.34,-2.41 -8.85,-4.07 -11.95,-3.31 -3.06,0.75 -5.72,5.36 -6.19,7.85 -0.54,2.3 2.48,3.85 3.1,6.15 0.43,2.23 -0.15,4.14 0.21,7.24 0.4,3.06 1.15,7.34 2.27,10.91 0.94,3.49 2.23,6.91 3.89,9.68 1.69,2.63 5.79,5.47 5.79,6.19 -0.28,0.58 -4.17,-1.47 -6.8,-2.27 -2.66,-0.9 -5.62,-2.05 -8.86,-2.48 -3.31,-0.5 -7.99,-0.43 -10.72,0.22 -2.81,0.68 -4.76,1.87 -5.98,3.7 z"
         style="fill:#80ffc0;fill-rule:evenodd"
         id="path219"
         inkscape:connector-curvature="0" /><path
         d="m 391.66,212.03 c 0.25,1.15 0.87,3.02 1.84,5.76 0.94,2.74 2.12,6.19 3.71,10.51 -4.65,0.33 -8.86,1.44 -13.18,3.49 -4.32,2.06 -8.96,6.59 -12.38,8.46 -3.53,1.7 -7.02,2.27 -8.25,1.88 -1.26,-0.54 -0.28,-2.77 0.83,-4.36 1.05,-1.58 2.95,-3.06 5.58,-4.71 -4.79,2.12 -8.17,3.23 -10.29,3.49 -2.2,0.14 -2.56,-0.69 -2.49,-2.06 0,-1.43 0.61,-4.42 2.67,-6.19 2.05,-1.8 4.96,-3.42 9.28,-4.71 -7.02,2.05 -11.44,2.73 -13.82,2.44 -2.3,-0.57 -1.8,-2.98 0,-4.71 1.65,-1.69 6.62,-3.82 9.9,-4.97 3.09,-1.19 6.05,-1.87 8.85,-2.05 -3.78,-0.76 -6.73,-1.77 -8.85,-2.88 -2.12,-1.15 -3.57,-2.59 -3.93,-3.93 -0.47,-1.54 -0.14,-4.68 1.26,-4.53 1.34,0.11 4.54,3.71 6.99,5.36 2.23,1.62 4.64,3.13 7.23,4.11 2.6,0.75 6.12,0.9 8.64,0.82 2.49,-0.1 4.58,-0.46 6.41,-1.22 z"
         style="fill:#ffc080;fill-rule:evenodd;stroke:#000000;stroke-width:0.036;stroke-miterlimit:10"
         id="path221"
         inkscape:connector-curvature="0" /></g><g
       transform="matrix(-0.61173066,-0.90955353,-0.80300923,0.18548331,397.08317,-212.58391)"
       id="g1016"><path
         id="rect18600"
         sodipodi:nodetypes="ccccc"
         style="color:#000000;fill:url(#linearGradient19712);stroke:#000000;stroke-width:0.84005672;stroke-opacity:1"
         inkscape:connector-curvature="0"
         d="m -437.6956,418.76377 -183.98018,388.35698 c -2.5083,0.96069 -1.80274,-0.75924 -4.47927,-1.73061 58.02828,-129.9369 120.08261,-261.23876 180.10726,-391.4198 3.36245,1.37749 6.00547,3.25702 8.35052,4.80042 z" /><path
         id="rect18598"
         sodipodi:nodetypes="ssssssscsss"
         style="color:#000000;fill:#111e28;stroke-width:1.1097182"
         inkscape:connector-curvature="0"
         d="m -402.72838,327.31189 c 4.11639,-7.56817 9.0604,-7.1053 9.89813,-3.19798 0.0688,0.32114 -1.49224,5.74845 -1.60443,6.05717 -11.85734,32.62904 -28.00818,58.68967 -42.76077,89.50543 -0.14099,0.29667 -0.49038,0.42548 -0.78805,0.28656 l -9.49441,-4.43066 c -0.29767,-0.1389 -0.42548,-0.49037 -0.28656,-0.78804 7.23236,-15.49833 12.8017,-28.73172 20.8405,-40.18179 8.30047,-19.05719 6.81245,-15.72027 7.47429,-12.53537 1.1338,5.45604 5.5861,12.38556 15.92445,-24.78556 1.43187,-5.14821 0.63967,-9.64079 0.79664,-9.92943 z" /><path
         inkscape:connector-curvature="0"
         id="path18602"
         style="color:#000000;fill:url(#radialGradient19720);stroke:#000000;stroke-width:0.97854567;stroke-opacity:1"
         d="m -617.47461,805.59997 c -0.85914,4.95581 -4.54006,9.69861 -8.22163,10.59339 -3.68158,0.89479 -5.96958,-2.3973 -5.11045,-7.3531 0.85913,-4.95579 4.54004,-9.69861 8.22162,-10.5934 3.68145,-0.89474 5.96958,2.39731 5.11046,7.35311 z" /><path
         d="m -605.05135,772.02886 -7.49758,15.82637 c -2.29992,1.62025 -5.28064,1.41539 -4.66204,-2.43399 2.4153,-5.37715 4.83695,-10.75642 7.26452,-16.13763 -0.1577,1.71224 0.17145,3.27346 0.98734,3.96917 0.81588,0.69571 2.11851,0.52591 3.90776,-1.22392 z"
         inkscape:connector-curvature="0"
         style="color:#000000;fill:#ff0000;stroke:#000000;stroke-width:0.84005672;stroke-opacity:1"
         sodipodi:nodetypes="ccccsc"
         id="path1138" /></g><g
       style="opacity:1;fill:#000000"
       transform="matrix(0.32379358,-0.02441824,0.02441824,0.32379358,182.81576,-135.69653)"
       id="g4808"><g
         transform="matrix(-1.2207167,-0.19062667,-0.19062667,1.2926775,1021.0347,46.551738)"
         id="g1011"><path
           sodipodi:nodetypes="cccccccccccccccccscsccccccccsccccccccccccc"
           id="path2830-1"
           style="fill:#000000;stroke:#000000;stroke-width:1px"
           inkscape:connector-curvature="0"
           d="m 427.28,482.62 c -18.993,0.12691 -37.296,6.0637 -55.938,8.4375 -7.7808,0.99079 -4.72783,2.06889 -12.52183,1.14749 -10.362,-1.225 -20.395,-4.4791 -30.75,-5.9375 -9.2543,-1.3033 -18.625,-2.6639 -27.938,-2.7188 -16.274,-0.0958 -32.014,4.9995 -47.969,7.75 0,4.6672 -0.94784,10.657 1.4375,13.938 2.4604,3.3832 6.6108,6.4775 7.6875,11.062 2.5533,10.873 6.178,21.532 10.812,31.75 2.2522,4.9657 6.5033,8.4277 11.25,10.812 11.43,5.7427 24.96,6.5872 37.5,4.7812 17.858,-2.5718 27.546,-15.971 34.938,-31.281 2.7668,-6.2236 3.0753,-13.406 6.7188,-19.094 2.1641,-3.3784 -3.88267,-2.79139 -0.29117,-2.80379 5.349,-0.0184 6.6354,5.9613 7.75,9.9375 3.9447,14.072 10.522,29.002 23.594,36.375 19.52,11.011 50.273,8.9511 62.938,-10.906 4.9565,-7.7714 6.3257,-17.201 8.8125,-26 1.5139,-5.3566 2.8661,-11.743 8.25,-14.688 2.1728,-1.1885 0.64803,-5.931 0.96875,-8.6875 0.34948,-3.0037 1.0232,-5.66 -3.25,-6.25 -7.4538,-1.0292 -14.684,-4.1594 -22.312,-5.2188 -7.2292,-1.0039 -14.312,-2.4555 -21.688,-2.4062 z m -114.48783,5.83499 c 5.3912,-0.0343 10.76,0.36033 16,1.4688 31.222,6.6041 31.853,19.468 19,46.062 -10.474,21.671 -32.17,27.101 -54.031,21.906 -10.078,-2.3944 -16.969,-9.4291 -20.219,-19.062 -3.4302,-10.167 -6.0249,-20.97 -5.4375,-31.656 0.78656,-14.31 16.973,-16.321 28.562,-17.625 5.3182,-0.59816 10.734,-1.0595 16.125,-1.0938 z M 415.72,487.62 c 5.3912,0.0343 10.807,0.49559 16.125,1.0938 11.59,1.3035 27.776,3.3147 28.562,17.625 0.58736,10.686 -2.0073,21.489 -5.4375,31.656 -3.25,9.6334 -10.141,16.668 -20.219,19.062 -21.862,5.1943 -43.558,-0.23554 -54.031,-21.906 -12.853,-26.595 -12.222,-39.458 19,-46.062 5.2402,-1.1084 10.609,-1.503 16,-1.4688 z" /><path
           id="path2832-4"
           inkscape:connector-curvature="0"
           sodipodi:nodetypes="cssssss"
           style="opacity:1;fill:#000000;fill-opacity:1;stroke:#000000;stroke-width:1px"
           d="m 297.31954,489.61456 c 10.636,-1.1963 21.643,-1.8437 32.123,0.37315 31.222,6.6041 31.852,19.469 18.998,46.064 -10.474,21.671 -32.158,27.102 -54.02,21.908 -10.078,-2.3944 -16.973,-9.4541 -20.223,-19.087 -3.4302,-10.167 -6.0391,-20.964 -5.4518,-31.65 0.78656,-14.31 16.983,-16.304 28.573,-17.607 z" /><path
           id="path2832-1"
           inkscape:connector-curvature="0"
           sodipodi:nodetypes="cssssss"
           style="opacity:1;fill:#000000;stroke:#000000;stroke-width:1px"
           d="m 431.84,488.73 c -10.636,-1.1963 -21.643,-1.8437 -32.123,0.37315 -31.222,6.6041 -31.852,19.469 -18.998,46.064 10.474,21.671 32.158,27.102 54.02,21.908 10.078,-2.3944 16.973,-9.4541 20.223,-19.087 3.4302,-10.167 6.0391,-20.964 5.4518,-31.65 -0.78656,-14.31 -16.983,-16.304 -28.573,-17.607 z" /></g></g></g></svg>